<?xml version="1.0" encoding="UTF-8"?>
<svg width="47px" height="48px" viewBox="0 0 47 48" version="1.1" xmlns="http://www.w3.org/2000/svg" xmlns:xlink="http://www.w3.org/1999/xlink">
    <!-- Generator: Sketch 64 (93537) - https://sketch.com -->
    <title>Group 37</title>
    <desc>Created with Sketch.</desc>
    <g id="Page-1" stroke="none" stroke-width="1" fill="none" fill-rule="evenodd">
        <g id="Group-37" transform="translate(1.000000, 1.000000)">
            <path d="M36.6816,27.9163 C37.8546,28.9003 39.2486,29.5773 40.7186,29.2313 C44.6636,28.3013 44.0526,31.5573 42.9936,33.5193 C41.9326,35.4823 39.5446,37.7773 38.1596,33.9693 C37.6436,32.5503 36.3126,31.7543 34.8466,31.3133" id="Stroke-1" stroke="#99258E" stroke-width="2"></path>
            <path d="M32.3359,16.4027 C33.5919,17.0817 36.7829,17.1827 39.2049,14.7027 C41.3369,11.2567 43.2069,13.9907 43.8449,16.1277 C44.4829,18.2647 44.4179,21.5767 40.7449,19.8627 C37.3609,19.1167 34.7479,20.9517 34.0689,22.2077" id="Stroke-3" stroke="#99258E" stroke-width="2"></path>
            <path d="M31.3906,10.1961 C31.8316,8.7301 32.6276,7.3991 34.0466,6.8831 C37.8556,5.4971 35.5596,3.1101 33.5976,2.0501 C31.6346,0.9891 28.3786,0.3791 29.3086,4.3231 C29.6556,5.7931 28.9786,7.1881 27.9946,8.3611" id="Stroke-5" stroke="#99258E" stroke-width="2"></path>
            <path d="M21.7695,34.8367 C23.1205,35.5347 25.0745,38.2567 24.2335,41.8127 C22.3435,45.6817 26.4045,45.5707 28.7195,44.8797 C31.0355,44.1887 34.4915,42.0547 30.7905,39.8547 C28.1375,37.3417 28.2805,33.9947 29.0265,32.6697" id="Stroke-7" stroke="#99258E" stroke-width="2"></path>
            <path d="M12.7607,35.0579 C12.3207,36.5239 11.5247,37.8549 10.1057,38.3709 C6.2967,39.7569 8.5927,42.1439 10.5547,43.2039 C12.5177,44.2639 15.7727,44.8749 14.8437,40.9299 C14.4967,39.4599 15.1737,38.0659 16.1577,36.8929" id="Stroke-9" stroke="#99258E" stroke-width="2"></path>
            <path d="M10.083,23.0462 C9.404,24.3022 6.791,26.1362 3.407,25.3912 C-0.266,23.6772 -0.331,26.9892 0.307,29.1262 C0.945,31.2632 2.815,33.9972 4.947,30.5512 C7.368,28.0712 10.56,28.1722 11.816,28.8512" id="Stroke-11" stroke="#99258E" stroke-width="2"></path>
            <path d="M15.126,12.5838 C15.872,11.2598 16.065,7.2448 13.361,5.3988 C9.66,3.1988 13.117,1.0658 15.433,0.3748 C17.748,-0.3172 21.808,-0.4282 19.919,3.4408 C18.826,6.7718 21.032,9.7188 22.383,10.4168" id="Stroke-13" stroke="#99258E" stroke-width="2"></path>
            <path d="M7.4707,17.3377 C6.2977,16.3537 4.9037,15.6767 3.4337,16.0227 C-0.5113,16.9527 0.0997,13.6967 1.1587,11.7337 C2.2197,9.7717 4.6077,7.4767 5.9917,11.2847 C6.5087,12.7037 7.8397,13.4997 9.3057,13.9407" id="Stroke-15" stroke="#99258E" stroke-width="2"></path>
            <path d="M31.7441,21.3411 C31.2651,19.7381 29.5781,18.8261 27.9751,19.3051 C26.3721,19.7831 25.4611,21.4711 25.9391,23.0741 C26.4181,24.6771 28.1051,25.5891 29.7081,25.1101 C31.3111,24.6321 32.2231,22.9441 31.7441,21.3411" id="Fill-17" fill="#E1CCE3"></path>
            <path d="M31.7441,21.3411 C31.2651,19.7381 29.5781,18.8261 27.9751,19.3051 C26.3721,19.7831 25.4611,21.4711 25.9391,23.0741 C26.4181,24.6771 28.1051,25.5891 29.7081,25.1101 C31.3111,24.6321 32.2231,22.9441 31.7441,21.3411 Z" id="Stroke-19" stroke="#99258E" stroke-width="2"></path>
            <path d="M22.5859,16.471 C22.1069,14.868 20.4199,13.956 18.8159,14.435 C17.2139,14.914 16.3019,16.601 16.7799,18.204 C17.2589,19.807 18.9459,20.719 20.5499,20.24 C22.1519,19.762 23.0649,18.074 22.5859,16.471" id="Fill-21" fill="#E1CCE3"></path>
            <path d="M22.5859,16.471 C22.1069,14.868 20.4199,13.956 18.8159,14.435 C17.2139,14.914 16.3019,16.601 16.7799,18.204 C17.2589,19.807 18.9459,20.719 20.5499,20.24 C22.1519,19.762 23.0649,18.074 22.5859,16.471 Z" id="Stroke-23" stroke="#99258E" stroke-width="2"></path>
            <path d="M21.7803,26.9305 C21.3013,25.3275 19.6143,24.4155 18.0103,24.8945 C16.4083,25.3725 15.4973,27.0605 15.9753,28.6635 C16.4543,30.2665 18.1413,31.1785 19.7443,30.6995 C21.3473,30.2215 22.2593,28.5335 21.7803,26.9305" id="Fill-25" fill="#E1CCE3"></path>
            <path d="M21.7803,26.9305 C21.3013,25.3275 19.6143,24.4155 18.0103,24.8945 C16.4083,25.3725 15.4973,27.0605 15.9753,28.6635 C16.4543,30.2665 18.1413,31.1785 19.7443,30.6995 C21.3473,30.2215 22.2593,28.5335 21.7803,26.9305 Z" id="Stroke-27" stroke="#99258E" stroke-width="2"></path>
            <path d="M20.0557,7.0267 C20.1417,7.2157 20.2417,7.4197 20.2837,7.6277 C20.3157,7.7897 20.3357,7.9567 20.3507,8.1217 C20.3527,8.1447 20.3527,8.1677 20.3527,8.1917 C20.9187,8.1237 21.4927,8.0797 22.0767,8.0797 C28.1627,8.0797 33.3817,11.8407 35.5477,17.1587 C35.5557,17.1447 35.5627,17.1307 35.5727,17.1167 C35.6587,16.9947 35.7487,16.8617 35.8617,16.7587 C36.0847,16.5547 36.2357,16.4657 36.4947,16.3577 C36.6337,16.2987 36.7587,16.2417 36.9077,16.2167 C36.9697,16.2067 37.0347,16.2017 37.0997,16.1937 C34.5967,10.3697 28.8067,6.2797 22.0767,6.2797 C21.2607,6.2797 20.4657,6.3597 19.6827,6.4747 C19.7597,6.5687 19.8307,6.6657 19.9007,6.7597 C19.9607,6.8437 20.0127,6.9327 20.0557,7.0267" id="Fill-29" fill="#99258E"></path>
            <path d="M38.1602,19.7879 C37.8572,19.8669 37.5412,19.9059 37.2232,19.9139 C37.0412,19.9179 36.8572,19.9119 36.6762,19.8939 C36.5682,19.8849 36.4602,19.8739 36.3522,19.8609 C36.5252,20.7579 36.6242,21.6809 36.6242,22.6269 C36.6242,28.4629 33.1622,33.4929 28.1912,35.8089 C28.2842,35.8409 28.3732,35.8799 28.4552,35.9229 C28.7812,36.0959 28.9932,36.4249 29.1032,36.7669 C29.1612,36.9439 29.1662,37.1499 29.1342,37.3499 C34.6192,34.7089 38.4242,29.1109 38.4242,22.6269 C38.4242,21.6569 38.3232,20.7119 38.1602,19.7879" id="Fill-31" fill="#99258E"></path>
            <path d="M6.1484,25.1761 C6.2764,25.0381 6.4274,24.9411 6.6024,24.8841 C6.7704,24.7961 6.9524,24.7551 7.1464,24.7621 C7.3404,24.7551 7.5224,24.7961 7.6904,24.8841 C7.7034,24.8881 7.7124,24.8961 7.7244,24.9001 C7.6064,24.1571 7.5284,23.4021 7.5284,22.6271 C7.5284,16.7691 11.0154,11.7221 16.0164,9.4181 C15.9554,9.3031 15.9004,9.1811 15.8444,9.0261 C15.8174,8.9501 15.7994,8.8701 15.7864,8.7911 C15.7484,8.5781 15.7204,8.3631 15.7004,8.1481 C15.6824,7.9651 15.6704,7.7771 15.6694,7.5901 C9.8314,10.0871 5.7284,15.8851 5.7284,22.6271 C5.7284,23.5711 5.8264,24.4911 5.9804,25.3931 C6.0364,25.3211 6.0924,25.2481 6.1484,25.1761" id="Fill-33" fill="#99258E"></path>
            <path d="M24.3457,38.5247 C24.2987,38.4117 24.2507,38.2997 24.2027,38.1877 C24.1897,38.1317 24.1757,38.0757 24.1617,38.0197 C24.0727,37.6617 24.1217,37.3137 24.2797,36.9887 C23.5587,37.0997 22.8267,37.1747 22.0757,37.1747 C16.0777,37.1747 10.9177,33.5247 8.6957,28.3297 L8.5227,28.5547 C8.3457,28.7297 8.1377,28.8507 7.8987,28.9177 C7.7737,28.9347 7.6487,28.9517 7.5237,28.9677 C7.3287,28.9757 7.1477,28.9347 6.9797,28.8467 C6.9727,28.8447 6.9677,28.8407 6.9617,28.8377 C9.4117,34.7787 15.2607,38.9747 22.0757,38.9747 C22.9247,38.9747 23.7517,38.8897 24.5667,38.7647 C24.4887,38.6887 24.3997,38.6247 24.3457,38.5247" id="Fill-35" fill="#99258E"></path>
        </g>
    </g>
</svg>