<?xml version="1.0" encoding="UTF-8"?>
<svg width="29px" height="59px" viewBox="0 0 29 59" version="1.1" xmlns="http://www.w3.org/2000/svg" xmlns:xlink="http://www.w3.org/1999/xlink">
    <!-- Generator: Sketch 64 (93537) - https://sketch.com -->
    <title>Group 17</title>
    <desc>Created with Sketch.</desc>
    <g id="Page-1" stroke="none" stroke-width="1" fill="none" fill-rule="evenodd">
        <g id="Group-17" transform="translate(0.000000, 1.000000)">
            <path d="M27.468,34.0842 C26.061,29.6662 25.34,25.2072 25.294,20.7382 L21.35,20.7382 L21.35,24.7372 L7.474,24.7372 L8.311,20.7382 L3.307,20.7382 C3.26,25.1782 2.546,29.6262 1.152,34.0562 C0.806,35.0462 0.879,36.0872 1.36,36.9902 C1.851,37.9142 2.702,38.5722 3.76,38.8532 C7.333,39.9202 10.946,40.4622 14.495,40.4622 C17.966,40.4622 21.436,39.9452 24.811,38.9232 L24.865,38.9062 C26.913,38.2252 28.042,36.1882 27.493,34.1692 L27.468,34.0842 Z" id="Fill-1" fill="#E1CCE3"></path>
            <path d="M14.6017,40.4626 C11.0517,40.4626 7.4397,39.9206 3.8667,38.8536 C2.8087,38.5726 1.9567,37.9146 1.4657,36.9906 C0.9857,36.0876 0.9127,35.0466 1.2577,34.0556 C4.1757,24.7906 4.1457,15.4396 1.1667,6.2626 L1.1387,6.1676 C0.5877,4.1486 1.7177,2.1126 3.7657,1.4296 C6.7817,0.4776 10.0247,0.0006 13.4377,0.0006 C17.0187,0.0006 20.8527,0.5246 24.8357,1.5596 C25.9017,1.8246 26.8177,2.5356 27.3317,3.5036 C27.8147,4.4136 27.8997,5.4846 27.5657,6.4496 C24.6647,15.6606 24.6667,24.9576 27.5747,34.0846 L27.5997,34.1696 C28.1487,36.1886 27.0197,38.2246 24.9717,38.9066 L24.9167,38.9236 C21.5417,39.9456 18.0727,40.4626 14.6017,40.4626 Z" id="Stroke-3" stroke="#99258E" stroke-width="2"></path>
            <path d="M21.3498,24.737 L21.3498,17.377 C21.3498,16.868 21.0108,16.53 20.5028,16.53 L8.3198,16.53 C7.8118,16.53 7.4738,16.868 7.4738,17.377 L7.4738,24.737 C7.4738,25.244 7.8118,25.582 8.3198,25.582 L20.5028,25.582 C20.9258,25.582 21.3498,25.159 21.3498,24.737 Z" id="Stroke-5" stroke="#99258E" stroke-width="2"></path>
            <path d="M14.4113,9.593 C17.3723,9.593 19.5723,8.323 19.5723,6.632 C19.5723,4.94 17.3723,3.671 14.4113,3.671 C11.4503,3.671 9.2503,4.94 9.2503,6.632 C9.2503,8.323 11.4503,9.593 14.4113,9.593 Z" id="Stroke-7" stroke="#99258E" stroke-width="2"></path>
            <path d="M10.7941,40.2575 C11.2371,41.8085 12.6231,43.1215 14.2841,43.1215 C15.9461,43.1215 17.3311,41.8635 17.7731,40.3135" id="Stroke-9" stroke="#99258E" stroke-width="2"></path>
            <path d="M14.2844,57.7746 L14.2844,43.1206 L14.2844,57.7746 Z" id="Stroke-11" stroke="#99258E" stroke-width="2"></path>
            <line x1="21.3498" y1="20.738" x2="25.3998" y2="20.738" id="Stroke-13" stroke="#99258E" stroke-width="2"></line>
            <line x1="7.4738" y1="20.738" x2="3.4198" y2="20.738" id="Stroke-15" stroke="#99258E" stroke-width="2"></line>
        </g>
    </g>
</svg>