<?xml version="1.0" encoding="UTF-8"?>
<svg width="45px" height="47px" viewBox="0 0 45 47" version="1.1" xmlns="http://www.w3.org/2000/svg" xmlns:xlink="http://www.w3.org/1999/xlink">
    <!-- Generator: Sketch 64 (93537) - https://sketch.com -->
    <title>Group 20</title>
    <desc>Created with Sketch.</desc>
    <g id="Page-1" stroke="none" stroke-width="1" fill="none" fill-rule="evenodd">
        <g id="Group-20" transform="translate(1.000000, 1.000000)">
            <g id="Group-5" stroke="#99258E" stroke-width="2">
                <polygon id="Stroke-1" points="29.2498 44.9998 -0.0002 44.9998 -0.0002 -0.0002 21.9378 -0.0002 29.2498 7.4998"></polygon>
                <polyline id="Stroke-3" points="21.9373 -0.0002 21.9373 7.4998 29.2493 7.4998"></polyline>
            </g>
            <line x1="4.4998" y1="11.2918" x2="13.4998" y2="11.2918" id="Stroke-6" stroke="#99258E" stroke-width="2" stroke-linecap="round"></line>
            <line x1="4.4998" y1="15.7918" x2="24.7498" y2="15.7918" id="Stroke-7" stroke="#99258E" stroke-width="2" stroke-linecap="round"></line>
            <line x1="4.4998" y1="20.2918" x2="24.7498" y2="20.2918" id="Stroke-8" stroke="#99258E" stroke-width="2" stroke-linecap="round"></line>
            <line x1="4.4998" y1="24.7918" x2="17.9998" y2="24.7918" id="Stroke-9" stroke="#99258E" stroke-width="2" stroke-linecap="round"></line>
            <line x1="4.4998" y1="29.2918" x2="13.4998" y2="29.2918" id="Stroke-10" stroke="#99258E" stroke-width="2" stroke-linecap="round"></line>
            <g id="Group-19" transform="translate(21.000000, 23.000000)">
                <path d="M8.1776,0.7576 C12.4666,0.7576 15.9446,4.2346 15.9446,8.5236 C15.9446,12.8126 12.4666,16.2886 8.1776,16.2886 C3.8886,16.2886 0.4116,12.8126 0.4116,8.5236 C0.4116,4.2346 3.8886,0.7576 8.1776,0.7576" id="Fill-11" fill="#FFFFFF"></path>
                <path d="M8.1776,0.7576 C12.4666,0.7576 15.9446,4.2346 15.9446,8.5236 C15.9446,12.8126 12.4666,16.2886 8.1776,16.2886 C3.8886,16.2886 0.4116,12.8126 0.4116,8.5236 C0.4116,4.2346 3.8886,0.7576 8.1776,0.7576" id="Fill-13" fill="#E1CCE3"></path>
                <path d="M8.1776,0.7576 C12.4666,0.7576 15.9446,4.2346 15.9446,8.5236 C15.9446,12.8126 12.4666,16.2886 8.1776,16.2886 C3.8886,16.2886 0.4116,12.8126 0.4116,8.5236 C0.4116,4.2346 3.8886,0.7576 8.1776,0.7576 Z" id="Stroke-15" stroke="#99258E" stroke-width="2"></path>
                <line x1="13.6688" y1="14.0145" x2="21.9048" y2="21.9995" id="Stroke-17" stroke="#99258E" stroke-width="2"></line>
            </g>
        </g>
    </g>
</svg>