<?xml version="1.0" encoding="UTF-8"?>
<svg width="37px" height="45px" viewBox="0 0 37 45" version="1.1" xmlns="http://www.w3.org/2000/svg" xmlns:xlink="http://www.w3.org/1999/xlink">
    <!-- Generator: Sketch 64 (93537) - https://sketch.com -->
    <title>icon-rx</title>
    <desc>Created with Sketch.</desc>
    <g id="Page-1" stroke="none" stroke-width="1" fill="none" fill-rule="evenodd">
        <g id="SLICES" transform="translate(-2727.292380, -4222.985883)"></g>
        <g id="icon_dosing_RX" transform="translate(0.000000, -0.500000)" fill="#9B288C" fill-rule="nonzero">
            <path d="M0.5,0.7 L13,0.7 C17,0.7 19.8,1.8 21.6,3.6 C23.1,5.1 23.9,7.1 23.9,9.8 L23.9,9.9 C23.9,13.9 21.7,16.6 18.5,18 L24.8,27.2 L16.3,27.2 L11,19.2 L10.9,19.2 L7.8,19.2 L7.8,27.2 L0.5,27.2 L0.5,0.7 Z M12.6,13.4 C15.1,13.4 16.5,12.2 16.5,10.3 L16.5,10.2 C16.5,8.1 15,7.1 12.5,7.1 L7.7,7.1 L7.7,13.4 L12.6,13.4 L12.6,13.4 Z" id="Shape"></path>
            <polygon id="Path" points="18.9 31.3 10.2 18.3 18.6 18.3 23.3 25.7 28 18.3 36.2 18.3 27.5 31.2 36.6 44.7 28.2 44.7 23.1 36.7 18 44.7 9.8 44.7"></polygon>
        </g>
    </g>
</svg>