<svg id="Layer_1" data-name="Layer 1" xmlns="http://www.w3.org/2000/svg" xmlns:xlink="http://www.w3.org/1999/xlink" viewBox="0 0 48.51 52.21"><defs><style>.cls-1,.cls-3,.cls-5{fill:none;}.cls-2{clip-path:url(#clip-path);}.cls-3,.cls-5{stroke:#99258e;stroke-miterlimit:10;}.cls-3{stroke-linecap:round;stroke-width:2px;}.cls-4{fill:#e1cce3;}.cls-6{fill:#fff;}</style><clipPath id="clip-path" transform="translate(0 0)"><rect class="cls-1" width="48.51" height="52.21"/></clipPath></defs><title>safety-serious-infections</title><g class="cls-2"><path class="cls-3" d="M23,12.17A4.3,4.3,0,0,0,27.71,11c1.45-2.35,2.72-.49,3.16,1s.39,3.71-2.11,2.54c-2.31-.51-4.84.94-5.3,1.79" transform="translate(0 0)"/><path class="cls-3" d="M22.38,8a3.2,3.2,0,0,1,1.81-2.26c2.6-1,1-2.57-.3-3.29S20.33,1.26,21,4a3.18,3.18,0,0,1-.89,2.75" transform="translate(0 0)"/><path class="cls-3" d="M7.87,16.7a4.31,4.31,0,0,1-4.55,1.6C.82,17.13.77,19.39,1.21,20.84s1.71,3.32,3.16,1a4.31,4.31,0,0,1,4.68-1.16" transform="translate(0 0)"/><path class="cls-3" d="M6.09,12.81a3.21,3.21,0,0,0-2.75-.9C.65,12.55,1.07,10.33,1.79,9s2.35-2.9,3.29-.3A3.2,3.2,0,0,0,7.34,10.5" transform="translate(0 0)"/><path class="cls-4" d="M21.62,21.54a2.06,2.06,0,1,0-1.38,2.56,2.05,2.05,0,0,0,1.38-2.56" transform="translate(0 0)"/><path class="cls-5" d="M21.62,21.54a2.06,2.06,0,1,0-1.38,2.56A2.05,2.05,0,0,0,21.62,21.54Z" transform="translate(0 0)"/><path class="cls-4" d="M20.38,13.22A2.06,2.06,0,1,0,19,15.79a2.06,2.06,0,0,0,1.38-2.57" transform="translate(0 0)"/><path class="cls-5" d="M20.38,13.22A2.06,2.06,0,1,0,19,15.79,2.06,2.06,0,0,0,20.38,13.22Z" transform="translate(0 0)"/><path class="cls-4" d="M13.84,17.34a2.07,2.07,0,1,0-1.39,2.57,2.06,2.06,0,0,0,1.39-2.57" transform="translate(0 0)"/><path class="cls-5" d="M13.84,17.34a2.07,2.07,0,1,0-1.39,2.57A2.06,2.06,0,0,0,13.84,17.34Z" transform="translate(0 0)"/><path class="cls-6" d="M11.3,9.57a4.2,4.2,0,0,0-1.2-4.89c-2.52-1.5-.16-2.95,1.41-3.42s4.35-.55,3.06,2.08A4.23,4.23,0,0,0,16.25,8.1" transform="translate(0 0)"/><path class="cls-3" d="M11.3,9.57a4.2,4.2,0,0,0-1.2-4.89c-2.52-1.5-.16-2.95,1.41-3.42s4.35-.55,3.06,2.08A4.23,4.23,0,0,0,16.25,8.1" transform="translate(0 0)"/><path class="cls-6" d="M10.69,24.88a3.18,3.18,0,0,1-1.81,2.26c-2.59.94-1,2.57.31,3.29s3.55,1.14,2.92-1.55a3.21,3.21,0,0,1,.9-2.75" transform="translate(0 0)"/><path class="cls-3" d="M10.69,24.88a3.18,3.18,0,0,1-1.81,2.26c-2.59.94-1,2.57.31,3.29s3.55,1.14,2.92-1.55a3.21,3.21,0,0,1,.9-2.75" transform="translate(0 0)"/><path class="cls-3" d="M42.67,39.26a3.18,3.18,0,0,0,2.75.89c2.69-.63,2.27,1.59,1.55,2.92s-2.35,2.9-3.29.31a3.18,3.18,0,0,0-2.26-1.81" transform="translate(0 0)"/><path class="cls-3" d="M38.71,30.41a4.31,4.31,0,0,0,4.68-1.16c1.46-2.34,2.73-.48,3.16,1s.39,3.71-2.11,2.54a4.28,4.28,0,0,0-4.54,1.6" transform="translate(0 0)"/><path class="cls-3" d="M38.07,26.18a3.18,3.18,0,0,1,1.81-2.25c2.59-.95,1-2.57-.31-3.29S36,19.5,36.65,22.18a3.16,3.16,0,0,1-.89,2.75" transform="translate(0 0)"/><path class="cls-3" d="M31.52,43a4.36,4.36,0,0,1,1.67,4.75c-1.28,2.64,1.48,2.56,3.06,2.09s3.93-1.92,1.41-3.42a4.37,4.37,0,0,1-1.2-4.9" transform="translate(0 0)"/><path class="cls-6" d="M25.38,45.12a3.2,3.2,0,0,1-1.81,2.26c-2.59.94-1,2.57.31,3.29s3.55,1.14,2.92-1.55a3.18,3.18,0,0,1,.89-2.75" transform="translate(0 0)"/><path class="cls-3" d="M25.38,45.12a3.2,3.2,0,0,1-1.81,2.26c-2.59.94-1,2.57.31,3.29s3.55,1.14,2.92-1.55a3.18,3.18,0,0,1,.89-2.75" transform="translate(0 0)"/><path class="cls-3" d="M24.93,34.94c-.46.85-3.62,2.1-5.92,1.59-2.5-1.16-2.55,1.09-2.11,2.55s1.7,3.32,3.16,1a4.31,4.31,0,0,1,4.68-1.16" transform="translate(0 0)"/><path class="cls-4" d="M37.31,33.78a2.06,2.06,0,1,0-1.39,2.56,2.06,2.06,0,0,0,1.39-2.56" transform="translate(0 0)"/><path class="cls-5" d="M37.31,33.78a2.06,2.06,0,1,0-1.39,2.56A2.06,2.06,0,0,0,37.31,33.78Z" transform="translate(0 0)"/><path class="cls-4" d="M31.07,29.46A2.06,2.06,0,1,0,29.68,32a2.06,2.06,0,0,0,1.39-2.57" transform="translate(0 0)"/><path class="cls-5" d="M31.07,29.46A2.06,2.06,0,1,0,29.68,32,2.06,2.06,0,0,0,31.07,29.46Z" transform="translate(0 0)"/><path class="cls-4" d="M31.52,37.58a2.06,2.06,0,1,0-1.38,2.57,2,2,0,0,0,1.38-2.57" transform="translate(0 0)"/><path class="cls-5" d="M31.52,37.58a2.06,2.06,0,1,0-1.38,2.57A2,2,0,0,0,31.52,37.58Z" transform="translate(0 0)"/><path class="cls-3" d="M5,17.9c.05-2.32,1.33-7.39,6.05-9.42" transform="translate(0 0)"/><path class="cls-3" d="M10.05,25.77A8.52,8.52,0,0,1,8.4,24.13c-.44-.6-1.35-1.64-2.12-2.82" transform="translate(0 0)"/><path class="cls-3" d="M23,35.27s1.41-6.22-.72-7.13c-1.5-.64-3.53-.54-5.8-.49a11.33,11.33,0,0,1-3.93-.56" transform="translate(0 0)"/><path class="cls-3" d="M33.33,46.81c-2.66.62-5,0-7.74-2.06-2.37-1.86-2.79-5.79-2.76-6.1" transform="translate(0 0)"/><path class="cls-3" d="M42.48,33A9.34,9.34,0,0,1,42,39.9a10.4,10.4,0,0,1-4.85,5.44" transform="translate(0 0)"/><path class="cls-3" d="M24.18,16.7c0,1.05-.48,6.88,1.41,7.57s3.7.38,6.13.72c1.73.24,6.16,1.05,7.67,2.81a18.7,18.7,0,0,1,1.89,2.55" transform="translate(0 0)"/><path class="cls-3" d="M15.34,7.25c3.58-.57,7,.1,8,2.72a12.16,12.16,0,0,1,.61,2.18" transform="translate(0 0)"/></g></svg>