<?xml version="1.0" encoding="UTF-8"?>
<svg width="48px" height="59px" viewBox="0 0 48 59" version="1.1" xmlns="http://www.w3.org/2000/svg" xmlns:xlink="http://www.w3.org/1999/xlink">
    <!-- Generator: Sketch 64 (93537) - https://sketch.com -->
    <title>safety-irrs</title>
    <desc>Created with Sketch.</desc>
    <g id="Page-1" stroke="none" stroke-width="1" fill="none" fill-rule="evenodd">
        <g id="Group-17" transform="translate(8.000000, 1.000000)" stroke="#99258E" stroke-width="2">
            <path d="M16.1192345,47.4389103 C11.9571655,47.4389103 7.7224069,46.8034621 3.53337241,45.5524966 C2.29295862,45.2230483 1.29406207,44.4516 0.718406897,43.3682897 C0.155648276,42.3096 0.070062069,41.0891172 0.474544828,39.9272552 C3.89564828,29.0648414 3.86047586,18.1016 0.367855172,7.34235862 L0.335027586,7.23097931 C-0.310972414,4.86387586 1.01385517,2.47684138 3.41495862,1.67608276 C6.95095862,0.559944828 10.7530966,0.000703448276 14.7545448,0.000703448276 C18.9529586,0.000703448276 23.4479931,0.615048276 28.1177172,1.82849655 C29.3675103,2.13918621 30.4414414,2.97277241 31.0440621,4.10766897 C31.6103379,5.17456552 31.7099931,6.43022069 31.3184069,7.5616 C27.9172345,18.3607034 27.9195793,29.2606345 31.3289586,39.9612552 L31.358269,40.0609103 C32.0019241,42.4280138 30.678269,44.8150483 28.2771655,45.6146345 L28.2126828,45.6345655 C24.2557862,46.8327724 20.1886828,47.4389103 16.1192345,47.4389103 Z" id="Stroke-3"></path>
            <path d="M24.0308,29.002 L24.0308,20.3730345 C24.0308,19.7762759 23.6333517,19.38 23.0377655,19.38 L8.75424828,19.38 C8.15866207,19.38 7.76238621,19.7762759 7.76238621,20.3730345 L7.76238621,29.002 C7.76238621,29.5964138 8.15866207,29.9926897 8.75424828,29.9926897 L23.0377655,29.9926897 C23.5336966,29.9926897 24.0308,29.4967586 24.0308,29.002 Z" id="Stroke-5"></path>
            <path d="M15.8960069,11.2469655 C19.3675241,11.2469655 21.9468345,9.758 21.9468345,7.77544828 C21.9468345,5.79172414 19.3675241,4.30393103 15.8960069,4.30393103 C12.4244897,4.30393103 9.84517931,5.79172414 9.84517931,7.77544828 C9.84517931,9.758 12.4244897,11.2469655 15.8960069,11.2469655 Z" id="Stroke-7"></path>
            <path d="M11.6551517,47.1984483 C12.174531,49.0168621 13.7994966,50.5562414 15.7468759,50.5562414 C17.6954276,50.5562414 19.3192207,49.0813448 19.8374276,47.2641034" id="Stroke-9"></path>
            <path d="M15.7472276,67.7357379 L15.7472276,50.5551862 L15.7472276,67.7357379 Z" id="Stroke-11"></path>
            <line x1="24.0308" y1="24.3135172" x2="28.7790759" y2="24.3135172" id="Stroke-13"></line>
            <line x1="7.76238621" y1="24.3135172" x2="3.00942069" y2="24.3135172" id="Stroke-15"></line>
        </g>
    </g>
</svg>