<svg xmlns="http://www.w3.org/2000/svg" viewBox="0 0 590 590"><defs><style>.cls-1,.cls-3{fill:#edd3ea;}.cls-1,.cls-3,.cls-5{stroke:#9a248f;}.cls-1,.cls-5{stroke-width:10px;}.cls-1,.cls-2,.cls-5{isolation:isolate;}.cls-3{stroke-width:7px;}.cls-4{fill:#9a248f;}.cls-5{fill:none;}</style></defs><g id="Layer_2" data-name="Layer 2"><g id="Layer_1-2" data-name="Layer 1"><circle class="cls-1" cx="295" cy="295" r="290"/><g class="cls-2"><path class="cls-3" d="M15.47,220.24l73.52,0V149.28a11.25,11.25,0,0,1,18.68-8.46l174.2,152.81a5.46,5.46,0,0,1,0,8.2L107.67,454.64A11.26,11.26,0,0,1,89,446.17V374.65l-72.9.08"/><path class="cls-3" d="M12.75,361.57l89.4-.09v73.23a3.29,3.29,0,0,0,5.46,2.47l156.15-137a3.3,3.3,0,0,0,0-4.95l-156.15-137a3.29,3.29,0,0,0-5.46,2.48v72.63l-88.59,0"/><path class="cls-3" d="M22.42,361.43h49.4"/><path class="cls-3" d="M71.82,374.58H17.56"/></g><polyline class="cls-4" points="12.76 361.89 2.89 316 2.89 264.67 9.33 233.67 102 233.33 101.67 164.67 102.61 159.07 108.52 159.07 263.76 295.25 264.88 297.73 110.23 434.88 105.09 437.98 102.15 434.71 102.15 361.49 12.76 361.89"/><g class="cls-2"><path class="cls-3" d="M573,375.22l-73.51,0v70.93a11.26,11.26,0,0,1-18.68,8.47L306.63,301.83a5.45,5.45,0,0,1,0-8.2l174.2-152.81a11.25,11.25,0,0,1,18.68,8.46v71.53l76.23-.09"/><path class="cls-3" d="M578.55,233.88l-92.21.09V160.75a3.29,3.29,0,0,0-5.45-2.48l-156.16,137a3.3,3.3,0,0,0,0,4.95l156.16,137a3.28,3.28,0,0,0,5.45-2.47V362.08l88.6,0"/><path class="cls-3" d="M566.07,234h-49.4"/><path class="cls-3" d="M516.67,220.87h54.27"/></g><polyline class="cls-4" points="575.74 233.56 585.61 279.45 585.61 330.79 579.16 361.79 486.49 362.12 486.83 430.79 485.89 436.38 479.97 436.38 324.73 300.2 323.61 297.73 478.27 160.57 483.4 157.48 486.35 160.75 486.35 233.97 575.74 233.56"/><path class="cls-5" d="M585,295c0,160.16-129.84,290-290,290S5,455.16,5,295a290.33,290.33,0,0,1,9.78-74.95C47.81,96.22,160.75,5,295,5,455.16,5,585,134.84,585,295Z"/></g></g></svg>