<?xml version="1.0" encoding="UTF-8"?>
<svg width="61px" height="51px" viewBox="0 0 61 51" version="1.1" xmlns="http://www.w3.org/2000/svg" xmlns:xlink="http://www.w3.org/1999/xlink">
    <!-- Generator: Sketch 64 (93537) - https://sketch.com -->
    <title>Group 14</title>
    <desc>Created with Sketch.</desc>
    <g id="Page-1" stroke="none" stroke-width="1" fill="none" fill-rule="evenodd">
        <g id="Group-14" transform="translate(1.000000, 1.000000)">
            <polygon id="Path-16" fill="#E1CCE3" points="30.7468905 1.55891595 25.6274876 0.0962293794 20.8737562 1.92458759 16.1200249 1.55891595 12.8289801 1.92458759 10.2692786 5.21563236 6.61256219 5.94697565 4.41853234 7.40966222 2.95584577 9.96936371 2.95584577 12.1633936 1.12748756 14.7230951 0.0304726368 18.3798115 1.12748756 22.4021995 2.22450249 27.1559309 5.14987562 29.7156324 9.17226368 30.4469756 11.0006219 30.4469756 12.0976368 34.8350353 14.6573383 36.6633936 18.6797264 38.1260801 22.3364428 37.3947368 26.3588308 35.200707 26.3588308 37.3947368 27.8215174 39.2230951 29.6498756 39.9544383 31.8439055 39.9544383 36.2319652 44.7081697 39.1573383 48.3648861 40.6200249 47.2678712 41.3513682 44.7081697 41.3513682 40.6857816 45.3737562 40.6857816 50.4931592 39.2230951 53.0528607 36.6633936 54.1498756 33.3723488 53.784204 29.7156324 57.0752488 27.1559309 58.5379353 24.5962294 57.806592 20.5738413 55.9782338 17.6484682 53.4185323 16.1857816 53.0528607 13.2604085 52.3215174 9.96936371 48.2991294 5.94697565 45.3737562 4.84996072 43.545398 4.48428908 38.0603234 1.55891595 33.6722637 1.55891595"></polygon>
            <path d="M33.6722637,16.1857816 C26.7245025,15.0887667 28.5528607,19.842498 27.4558458,19.842498 C26.7245025,19.842498 21.6050995,19.842498 17.9483831,19.842498 C14.2916667,19.842498 10.5618562,25.3279759 11.0006219,29.7156324 C11.4393875,34.1032889 12.4633085,36.6633936 17.9483831,37.7604085 C21.6050995,38.4917518 25.0180348,37.0290652 28.1871891,33.3723488" id="Path-4" stroke="#99258E" stroke-width="2" stroke-linecap="round"></path>
            <path d="M24.8961443,31.5439906 C28.0652985,33.7380204 30.9906716,34.8350353 33.6722637,34.8350353 C38.7916667,34.8350353 43.0578358,32.519115 46.4707711,27.8872742" id="Path-5" stroke="#99258E" stroke-width="2" stroke-linecap="round"></path>
            <path d="M34.403607,34.8350353 C35.6225124,38.7355329 38.7916667,40.6857816 43.9110697,40.6857816 C50.8588308,41.0514533 53.0528607,36.2977219 53.784204,34.1036921 C54.2717662,32.1534433 54.2717662,30.6907567 53.784204,29.7156324" id="Path-6" stroke="#99258E" stroke-width="2" stroke-linecap="round"></path>
            <path d="M3.68718905,24.5962294 C1.00559701,22.6459806 -0.213308458,20.2081697 0.0304726368,17.2827965 C0.274253731,14.1136423 2.22450249,12.041503 5.88121891,11.0663786" id="Path-7" stroke="#99258E" stroke-width="2" stroke-linecap="round"></path>
            <path d="M1.12748756,22.4021995 C1.37126866,28.2529458 4.66231343,30.9345378 11.0006219,30.4469756" id="Path-8" stroke="#99258E" stroke-width="2" stroke-linecap="round"></path>
            <path d="M44.6424129,24.961901 C45.6175373,27.1559309 46.9583333,28.6186174 48.664801,29.3499607 C50.6150498,30.3250851 52.6871891,30.2031946 54.8812189,28.9842891 C57.3190299,27.5216025 58.5379353,25.3275727 58.5379353,22.4021995 C58.5379353,19.4768264 56.8314677,17.4046871 53.4185323,16.1857816" id="Path-9" stroke="#99258E" stroke-width="2" stroke-linecap="round"></path>
            <path d="M45.3737562,7.40966222 C43.1797264,3.5091647 40.1324627,1.4370254 36.2319652,1.1932443 C32.3314677,0.94946321 29.8936567,1.55891595 28.9185323,3.02160251" id="Path-10" stroke="#99258E" stroke-width="2" stroke-linecap="round"></path>
            <path d="M43.545398,4.84996072 C46.22699,4.36239853 48.664801,5.33752291 50.8588308,7.77533386 C53.0528607,10.2131448 53.6623134,14.1136423 52.6871891,19.4768264" id="Path-11" stroke="#99258E" stroke-width="2" stroke-linecap="round"></path>
            <path d="M12.8289801,5.58130401 C6.73445274,4.36239853 3.44340796,6.55642838 2.95584577,12.1633936" id="Path-12" stroke="#99258E" stroke-width="2" stroke-linecap="round"></path>
            <path d="M23.0677861,4.11861744 C22.0926617,2.16836868 20.0205224,1.1932443 16.8513682,1.1932443 C13.6822139,1.1932443 11.4881841,2.53404032 10.2692786,5.21563236" id="Path-13" stroke="#99258E" stroke-width="2" stroke-linecap="round"></path>
            <path d="M20.8737562,1.92458759 C23.7991294,-0.513223357 27.0901741,-0.635113904 30.7468905,1.55891595" id="Path-14" stroke="#99258E" stroke-width="2" stroke-linecap="round"></path>
            <path d="M26.3588308,35.5663786 C26.3588308,39.9544383 29.6498756,39.9544383 31.1125622,39.9544383 C32.5752488,39.9544383 37.763703,47.3383806 38.7916667,47.9992145 C39.8196304,48.6600483 40.6200249,47.2678712 40.9856965,46.5365279 C41.2294776,46.0489657 41.3513682,44.0987169 41.3513682,40.6857816" id="Path-15" stroke="#99258E" stroke-width="2" stroke-linecap="round"></path>
        </g>
    </g>
</svg>