<svg id="Layer_1" data-name="Layer 1" xmlns="http://www.w3.org/2000/svg" xmlns:xlink="http://www.w3.org/1999/xlink" viewBox="0 0 36.42 47"><defs><style>.cls-1,.cls-3,.cls-4{fill:none;}.cls-2{clip-path:url(#clip-path);}.cls-3,.cls-4{stroke:#99258e;stroke-miterlimit:10;stroke-width:2px;}.cls-4{stroke-linecap:round;}</style><clipPath id="clip-path" transform="translate(0 0)"><rect class="cls-1" width="36.42" height="47"/></clipPath></defs><title>clipboard</title><g class="cls-2"><polyline class="cls-3" points="29.82 3.02 35.42 3.02 35.42 46 1 46 1 3.02 6.56 3.02"/><path class="cls-3" d="M26.08,1H10.34a1,1,0,0,0-1,1V5.48a4.26,4.26,0,0,0,4.26,4.25h9.25a4.26,4.26,0,0,0,4.25-4.25V2A1,1,0,0,0,26.08,1Z" transform="translate(0 0)"/><circle class="cls-3" cx="7.4" cy="16.68" r="1.93"/><circle class="cls-3" cx="7.4" cy="26.68" r="1.93"/><circle class="cls-3" cx="7.4" cy="36.68" r="1.93"/><line class="cls-4" x1="14.48" y1="16.75" x2="29.23" y2="16.75"/><line class="cls-4" x1="14.48" y1="26.75" x2="29.23" y2="26.75"/><line class="cls-4" x1="14.48" y1="36.75" x2="29.23" y2="36.75"/></g></svg>