<?xml version="1.0" encoding="UTF-8"?>
<svg width="53px" height="53px" viewBox="0 0 53 53" version="1.1" xmlns="http://www.w3.org/2000/svg" xmlns:xlink="http://www.w3.org/1999/xlink">
    <title>Group 2</title>
    <g id="Page-1" stroke="none" stroke-width="1" fill="none" fill-rule="evenodd">
        <g id="3a-resources" transform="translate(-564.000000, -1136.000000)">
            <g id="Group-4" transform="translate(112.000000, 917.000000)">
                <g id="Group-2" transform="translate(452.000000, 219.000000)">
                    <circle id="Oval" stroke="#9B288C" stroke-width="1.5" cx="26.5" cy="26.5" r="25.75"></circle>
                    <g id="Group-3" transform="translate(10.360215, 8.000000)" fill="#9B288B">
                        <path d="M28.260644,13.8107527 C26.6238524,13.8107527 25.1916597,14.7096774 24.4145929,16.0172043 C23.6367076,14.7096774 22.2045149,13.8107527 20.5677233,13.8107527 C18.9309316,13.8107527 17.4987389,14.6688172 16.7212629,15.9763441 C15.9437869,14.6688172 14.5115942,13.8107527 12.8748025,13.8107527 C11.2380109,13.8107527 9.80581819,14.7096774 9.02834215,16.0172043 C8.25086612,14.7096774 6.81867343,13.8107527 5.18188178,13.8107527 C4.1179672,13.8107527 3.09497242,14.1784946 2.31749639,14.8322581 C3.83152866,8.33548387 9.68305881,3.47311828 16.6803431,3.47311828 C23.6776274,3.47311828 29.5295668,8.33548387 31.0841096,14.8322581 C30.3066336,14.1784946 29.3249678,13.8107527 28.260644,13.8107527 M17.29414,2.28817204 L17.29414,0.612903226 C17.29414,0.286021505 17.0077015,0 16.6803431,0 C16.3529848,0 16.0665463,0.286021505 16.0665463,0.612903226 L16.0665463,2.24731183 C7.51430988,2.61505376 0.639784946,9.64301075 0.639784946,18.3053763 C0.639784946,18.6322581 0.926223485,18.9182796 1.25358182,18.9182796 C1.58094015,18.9182796 1.86737868,18.6322581 1.86737868,18.3053763 C1.86737868,16.5075269 3.34049117,15.0774194 5.10004219,15.0774194 C6.85959322,15.0774194 8.3327057,16.5483871 8.3327057,18.3053763 C8.3327057,18.6322581 8.61914424,18.9182796 8.94650257,18.9182796 C9.2738609,18.9182796 9.56029944,18.6322581 9.56029944,18.3053763 C9.56029944,16.5075269 11.0334119,15.0774194 12.792963,15.0774194 C14.4297546,15.0774194 15.8210275,16.3032258 16.0256265,17.9376344 L16.0256265,33.9548387 C15.8210275,35.5892473 14.4297546,36.7741935 12.792963,36.7741935 C10.9924921,36.7741935 9.56029944,35.3036344 9.56029944,33.5462366 C9.56029944,33.2193548 9.2738609,32.9333333 8.94650257,32.9333333 C8.61914424,32.9333333 8.3327057,33.2193548 8.3327057,33.5462366 C8.3327057,35.9978495 10.3377755,38 12.792963,38 C15.0844713,38 17.0077015,36.283871 17.2536294,33.9956989 L17.2536294,17.8967742 C17.4582284,16.2623656 18.8081723,15.0365591 20.4858837,15.0365591 C22.2863545,15.0365591 23.7185472,16.5075269 23.7185472,18.2645161 C23.7185472,18.5913978 24.005395,18.8774194 24.3323441,18.8774194 C24.6597024,18.8774194 24.946141,18.5913978 24.946141,18.2645161 C24.946141,16.4666667 26.4192534,15.0365591 28.1788045,15.0365591 C29.9387647,15.0365591 31.411468,16.5075269 31.411468,18.2645161 C31.411468,18.5913978 31.6979065,18.8774194 32.0252648,18.8774194 C32.3526232,18.8774194 32.6390617,18.5913978 32.6390617,18.2645161 C32.7209013,9.64301075 25.8467856,2.61505376 17.29414,2.28817204" id="Fill-1"></path>
                    </g>
                </g>
            </g>
        </g>
    </g>
</svg>