<?xml version="1.0" encoding="UTF-8"?>
<svg width="58px" height="58px" viewBox="0 0 58 58" version="1.1" xmlns="http://www.w3.org/2000/svg" xmlns:xlink="http://www.w3.org/1999/xlink">
    <!-- Generator: Sketch 64 (93537) - https://sketch.com -->
    <title>ec-phone</title>
    <desc>Created with Sketch.</desc>
    <g id="Page-1" stroke="none" stroke-width="1" fill="none" fill-rule="evenodd">
        <g id="ec-phone" transform="translate(0.000000, 0.500000)">
            <path d="M57.4,30.3 C57.4,45.3 45.2,57.4 30.3,57.4 C15.3,57.4 3.2,45.2 3.2,30.3 C3.2,15.3 15.4,3.2 30.3,3.2 C45.3,3.2 57.4,15.3 57.4,30.3" id="Path" fill="#EDD3E9" fill-rule="nonzero"></path>
            <path d="M55,28 C55,43 42.8,55.1 27.9,55.1 C12.9,55.1 0.8,42.9 0.8,28 C0.8,13 13,0.9 27.9,0.9 C42.9,0.8 55,13 55,28 Z" id="Path" stroke="#9D1D96"></path>
            <path d="M35.8,44.9 L19.9,44.9 C19.3,44.9 18.8,44.4 18.8,43.8 L18.8,12.7 C18.8,12.1 19.3,11.6 19.9,11.6 L35.8,11.6 C36.4,11.6 36.9,12.1 36.9,12.7 L36.9,43.8 C36.9,44.4 36.4,44.9 35.8,44.9" id="Path" fill="#EDD3E9" fill-rule="nonzero"></path>
            <path d="M35.5,11.4 L19.9,11.4 C18.8,11.4 18,12.4 18,13.6 L18,43.5 C18,44.7 18.9,45.7 19.9,45.7 L35.5,45.7 C36.6,45.7 37.4,44.7 37.4,43.5 L37.4,13.6 C37.4,12.4 36.6,11.4 35.5,11.4 M19,16.9 L36.5,16.9 L36.5,39.5 L19,39.5 L19,16.9 Z M19.9,12.5 L35.5,12.5 C36,12.5 36.5,13 36.5,13.6 L36.5,16.2 L19,16.2 L19,13.6 C19,13 19.4,12.5 19.9,12.5 M35.5,44.5 L19.9,44.5 C19.4,44.5 18.9,44 18.9,43.4 L18.9,40.1 L36.4,40.1 L36.4,43.4 C36.5,44.1 36.1,44.5 35.5,44.5" id="Shape" fill="#9B278F" fill-rule="nonzero"></path>
            <path d="M28.1,40.9 C27.3,40.9 26.7,41.6 26.7,42.4 C26.7,43.2 27.3,43.9 28.1,43.9 C28.8,43.9 29.5,43.2 29.5,42.4 C29.5,41.6 28.9,40.9 28.1,40.9 M28.1,43.3 C27.7,43.3 27.3,42.9 27.3,42.4 C27.3,41.9 27.7,41.5 28.1,41.5 C28.5,41.5 28.9,41.9 28.9,42.4 C28.9,42.9 28.6,43.3 28.1,43.3" id="Shape" fill="#9B278F" fill-rule="nonzero"></path>
            <path d="M23.9,33.6 C23.9,33.5 23.9,33.4 23.9,33.3 L23.9,30.3 C23.9,28.7 25.4,27.4 27.3,27.4 L29.1,27.4 C31,27.4 32.4,28.7 32.4,30.3 L32.4,33.3 C32.4,33.4 32.4,33.5 32.4,33.6 L23.9,33.6 Z" id="Path" fill="#EDD3E9" fill-rule="nonzero"></path>
            <path d="M23.9,33.6 C23.9,33.5 23.9,33.4 23.9,33.3 L23.9,30.3 C23.9,28.7 25.4,27.4 27.3,27.4 L29.1,27.4 C31,27.4 32.4,28.7 32.4,30.3 L32.4,33.3 C32.4,33.4 32.4,33.5 32.4,33.6 L23.9,33.6 Z" id="Path" stroke="#9B278F"></path>
            <path d="M26,23.7 C25.9,24.9 26.9,25.9 28.2,26 C29.5,26.1 30.5,25.1 30.6,23.9 C30.7,22.7 29.7,21.7 28.4,21.6 C27.2,21.6 26.1,22.5 26,23.7" id="Path" fill="#EDD3E9" fill-rule="nonzero"></path>
            <path d="M26,23.7 C25.9,24.9 26.9,25.9 28.2,26 C29.5,26.1 30.5,25.1 30.6,23.9 C30.7,22.7 29.7,21.7 28.4,21.6 C27.2,21.6 26.1,22.5 26,23.7 Z" id="Path" stroke="#9B278F"></path>
        </g>
    </g>
</svg>