<svg xmlns="http://www.w3.org/2000/svg" viewBox="0 0 590 590"><defs><style>.cls-1{fill:#edd3ea;stroke:#9a248f;stroke-width:10px;}.cls-1,.cls-2{isolation:isolate;}.cls-3{fill:#9a248f;}.cls-4{fill:#fff;}</style></defs><g id="Layer_2" data-name="Layer 2"><g id="Layer_1-2" data-name="Layer 1"><circle class="cls-1" cx="295" cy="295" r="290"/><g class="cls-2"><path class="cls-3" d="M299.73,119.78c58.79.13,110,16.66,161.47,43a11.62,11.62,0,0,1,6.41,9.12c8.61,67,6.79,133.67-24,195.46C413.63,427.62,365.46,465,306,492.83a11.61,11.61,0,0,1-10.16,0C236.44,465,188.27,427.62,158.28,367.39c-30.76-61.77-32.61-128.51-24-195.46a11.62,11.62,0,0,1,6.21-9c50.68-27.18,100.74-43.26,159.23-43.14Zm0,25.07q-71.07-.15-141.44,37-12.87,102.84,22.5,174.36Q216.13,427.12,301,467.57q85-40.33,120.16-111.39Q456.63,284.83,443.63,182q-72.72-36.83-143.9-37.12Z"/></g><g class="cls-2"><path class="cls-3" d="M300,152.66c47.2.11,88.3,13.38,129.64,34.55a9.33,9.33,0,0,1,5.14,7.32c6.92,53.77,5.45,107.32-19.25,156.93C391.42,399.82,352.74,429.8,305,452.18a9.35,9.35,0,0,1-8.16,0c-47.71-22.38-86.39-52.36-110.47-100.72-24.69-49.59-26.18-103.17-19.25-156.93a9.33,9.33,0,0,1,5-7.23C212.82,165.48,253,152.57,300,152.66Zm0,20.14q-57.06-.13-113.56,29.68c-6.88,55-1,101.77,18.07,140q28.36,57,96.47,89.43,68.25-32.38,96.47-89.43Q426,285.17,415.5,202.59,357.12,173,300,172.8Z"/></g><polygon class="cls-3" points="179.67 195.33 267 164 351 172.79 423 198.67 427 290.67 386.33 382 303.33 443.33 228.33 394.67 179.67 312.67 179.67 195.33"/><path class="cls-4" d="M301,392.13c-45.36,0-64.26-24.57-64.26-49.41V326.25h45.9V336c0,10.53,5.13,15.93,16.2,15.93s15.39-5.4,15.39-16.47V317.34c0-11.88-5.13-18.09-15.66-18.09-7.83,0-14.58,4.59-17,9.72l-43.75-5.13,6.49-96.66H362.87c-2.7,27.27-10.53,40.5-28.35,40.5H283.76l-2.7,36.18c10-11.34,23.22-17.55,40.77-17.55,26.19,0,42.66,17.82,42.66,41.58v31.86C364.49,370.53,341.54,392.13,301,392.13Z"/></g></g></svg>