<?xml version="1.0" encoding="UTF-8"?>
<svg width="53px" height="38px" viewBox="0 0 53 38" version="1.1" xmlns="http://www.w3.org/2000/svg" xmlns:xlink="http://www.w3.org/1999/xlink">
    <!-- Generator: Sketch 64 (93537) - https://sketch.com -->
    <title>Group 4</title>
    <desc>Created with Sketch.</desc>
    <g id="Page-1" stroke="none" stroke-width="1" fill="none" fill-rule="evenodd">
        <g id="Group-4" transform="translate(1.000000, 1.000000)">
            <path d="M32.1068,9.4434 C27.9758,15.4634 28.3298,22.6644 25.4968,25.4964 C22.6638,28.3294 19.6068,26.4164 15.1088,28.3294 C9.5608,30.6904 8.0858,35.8844 3.7778,35.8844 C0.5508,35.8844 0.0008,34.4674 0.0008,33.0514 C0.0008,31.6344 1.8888,29.5104 1.8888,26.4414 C1.8888,23.7854 0.0008,20.8934 0.0008,16.9984 C0.0008,10.6824 4.2518,0.0004 15.1088,0.0004 C22.1918,0.0004 30.0608,3.7774 33.9958,3.7774 L42.4948,3.7774 C45.3278,3.7774 50.9938,4.4064 50.9938,6.6104 C50.9938,8.8144 46.9798,11.4894 43.9118,14.8734 C40.8418,18.2564 37.7828,22.4164 34.1728,23.0184 C29.9228,23.7264 30.2068,23.3814 27.0418,22.9044" id="Fill-1" fill="#E1CCE3"></path>
            <path d="M32.1068,9.4434 C27.9758,15.4634 28.3298,22.6644 25.4968,25.4964 C22.6638,28.3294 19.6068,26.4164 15.1088,28.3294 C9.5608,30.6904 8.0858,35.8844 3.7778,35.8844 C0.5508,35.8844 0.0008,34.4674 0.0008,33.0514 C0.0008,31.6344 1.8888,29.5104 1.8888,26.4414 C1.8888,23.7854 0.0008,20.8934 0.0008,16.9984 C0.0008,10.6824 4.2518,0.0004 15.1088,0.0004 C22.1918,0.0004 30.0608,3.7774 33.9958,3.7774 L42.4948,3.7774 C45.3278,3.7774 50.9938,4.4064 50.9938,6.6104 C50.9938,8.8144 46.9798,11.4894 43.9118,14.8734 C40.8418,18.2564 37.7828,22.4164 34.1728,23.0184 C29.9228,23.7264 30.2068,23.3814 27.0418,22.9044" id="Stroke-3" stroke="#99258E" stroke-width="2"></path>
        </g>
    </g>
</svg>