<?xml version="1.0" encoding="UTF-8"?>
<svg width="68px" height="68px" viewBox="0 0 68 68" version="1.1" xmlns="http://www.w3.org/2000/svg" xmlns:xlink="http://www.w3.org/1999/xlink">
    <!-- Generator: Sketch 64 (93537) - https://sketch.com -->
    <title>peer-perspectives</title>
    <desc>Created with Sketch.</desc>
    <g id="Page-1" stroke="none" stroke-width="1" fill="none" fill-rule="evenodd">
        <g id="peer-perspectives">
            <circle id="Oval" stroke="#9B288C" stroke-width="2" fill="#FFFFFF" fill-rule="nonzero" cx="34.0274194" cy="34.0091398" r="32.9725806"/>
            <g id="Group" transform="translate(11.698925, 20.838710)" stroke="#99248E">
                <path d="M0.749462366,9.72473118 L9.61505376,13.1247312 L9.61505376,22.2645161 C9.61505376,22.9225806 9.95322581,23.9188172 10.5290323,24.4306452 C13.3349462,26.944086 17.6397849,28.388172 22.3193548,28.388172 C26.9989247,28.388172 31.3037634,26.944086 34.1096774,24.4215054 C34.6854839,23.9096774 35.0236559,22.9134409 35.0236559,22.2553763 L35.0236559,13.1247312 L37.2263441,12.283871 C37.4822581,12.1833333 37.6010753,11.9091398 37.5096774,11.6532258 C37.4091398,11.3973118 37.1258065,11.2784946 36.8790323,11.3698925 L23.1327957,16.6435484 C22.7032258,16.8080645 21.9446237,16.8080645 21.505914,16.6435484 L1.29784946,8.89301075 L21.505914,1.14247312 C21.9354839,0.977956989 22.694086,0.977956989 23.1327957,1.14247312 L43.3408602,8.89301075 L41.4580645,9.61505376 C41.2021505,9.7155914 41.0833333,9.98978495 41.1747312,10.2456989 C41.2752688,10.5016129 41.5586022,10.6204301 41.8053763,10.5290323 L43.8892473,9.72473118 C44.5198925,9.48709677 44.6112903,9.09408602 44.6112903,8.89301075 C44.6112903,8.6827957 44.5198925,8.29892473 43.8892473,8.06129032 L23.4801075,0.228494624 C22.822043,-0.0274193548 21.8166667,-0.0274193548 21.1586022,0.228494624 L0.749462366,8.06129032 C0.118817204,8.29892473 0.0274193548,8.69193548 0.0274193548,8.89301075 C0.0274193548,9.09408602 0.118817204,9.47795699 0.749462366,9.72473118 Z M22.3193548,17.7403226 C22.7306452,17.7403226 23.1510753,17.6763441 23.4801075,17.5483871 L34.0456989,13.4903226 L34.0456989,22.2462366 C34.0456989,22.7215054 33.7623656,23.4069892 33.4607527,23.6811828 C30.8650538,26.011828 26.6973118,27.4010753 22.3193548,27.4010753 C17.9322581,27.4010753 13.7736559,26.011828 11.177957,23.6903226 C10.8672043,23.416129 10.5930108,22.7306452 10.5930108,22.2553763 L10.5930108,13.4903226 L21.1586022,17.5483871 C21.4876344,17.6763441 21.8989247,17.7403226 22.3193548,17.7403226 Z" id="Shape"/>
                <path d="M37.2811828,18.5537634 C37.2811828,19.933871 38.4053763,21.0580645 39.7854839,21.0580645 C41.1655914,21.0580645 42.2897849,19.933871 42.2897849,18.5537634 C42.2897849,17.338172 41.4215054,16.3236559 40.2698925,16.0951613 L40.2698925,11.3333333 C40.2698925,10.5107527 39.6301075,9.75215054 38.8075269,9.61505376 L22.7123656,7.22043011 C22.4473118,7.18387097 22.2005376,7.36666667 22.1548387,7.63172043 C22.1182796,7.89677419 22.3010753,8.14354839 22.566129,8.18924731 L38.6521505,10.583871 C38.9903226,10.6387097 39.2919355,10.9951613 39.2919355,11.3333333 L39.2919355,16.0951613 C38.1586022,16.3236559 37.2811828,17.338172 37.2811828,18.5537634 Z M41.3209677,18.5537634 C41.3209677,19.3946237 40.6354839,20.0801075 39.7946237,20.0801075 C38.9537634,20.0801075 38.2682796,19.3946237 38.2682796,18.5537634 C38.2682796,17.7129032 38.9537634,17.0274194 39.7946237,17.0274194 C40.6354839,17.0274194 41.3209677,17.7129032 41.3209677,18.5537634 Z" id="Shape"/>
                <path d="M36.8333333,26.861828 C37.0801075,27.1725806 37.4731183,27.3462366 37.8935484,27.3462366 L41.6865591,27.3462366 C42.116129,27.3462366 42.5,27.1725806 42.7467742,26.861828 C42.9935484,26.5510753 43.0849462,26.1397849 42.9935484,25.7193548 L42.1069892,21.6247312 C42.0521505,21.3596774 41.7870968,21.1951613 41.522043,21.25 C41.2569892,21.3048387 41.0924731,21.5698925 41.1473118,21.8349462 L42.033871,25.9295699 C42.0612903,26.0575269 42.0430108,26.1763441 41.9790323,26.2494624 C41.9150538,26.3317204 41.8053763,26.3682796 41.6774194,26.3682796 L37.8844086,26.3682796 C37.7564516,26.3682796 37.6467742,26.3225806 37.5827957,26.2494624 C37.5188172,26.1672043 37.5005376,26.0575269 37.527957,25.9295699 L38.4145161,21.8349462 C38.4693548,21.5698925 38.3048387,21.3139785 38.0397849,21.25 C37.7747312,21.1951613 37.5188172,21.3596774 37.4548387,21.6247312 L36.5682796,25.7193548 C36.4951613,26.1397849 36.5865591,26.5510753 36.8333333,26.861828 Z" id="Path"/>
            </g>
        </g>
    </g>
</svg>