<?xml version="1.0" encoding="UTF-8"?>
<svg width="68px" height="68px" viewBox="0 0 68 68" version="1.1" xmlns="http://www.w3.org/2000/svg" xmlns:xlink="http://www.w3.org/1999/xlink">
    <!-- Generator: Sketch 64 (93537) - https://sketch.com -->
    <title>request-a-rep</title>
    <desc>Created with Sketch.</desc>
    <g id="Page-1" stroke="none" stroke-width="1" fill="none" fill-rule="evenodd">
        <g id="request-a-rep">
            <circle id="Oval" stroke="#9B288C" stroke-width="2" fill="#FFFFFF" fill-rule="nonzero" cx="34.0091398" cy="34.0365591" r="32.9725806"/>
            <g id="Group" transform="translate(17.182796, 7.403226)" fill="#99248E" fill-rule="nonzero">
                <path d="M10.8306452,16.3236559 C9.79784946,16.3236559 8.77419355,16.2322581 7.75967742,16.0586022 C7.44892473,16.0037634 7.24784946,15.7112903 7.30268817,15.4005376 C7.35752688,15.0897849 7.65,14.8887097 7.96075269,14.9435484 C8.90215054,15.1080645 9.87096774,15.1903226 10.8306452,15.1903226 C14.9801075,15.1903226 18.955914,13.6548387 22.0268817,10.8763441 C22.2553763,10.666129 22.611828,10.6844086 22.822043,10.9129032 C23.0322581,11.1413978 23.0139785,11.4978495 22.7854839,11.7080645 C19.5043011,14.6876344 15.2634409,16.3236559 10.8306452,16.3236559 Z" id="Path"/>
                <path d="M27.4467742,16.6435484 C27.3462366,16.6435484 27.2456989,16.616129 27.1543011,16.5612903 C25.0978495,15.3182796 23.2973118,13.6091398 21.9354839,11.6258065 C21.761828,11.3698925 21.8258065,11.0134409 22.0817204,10.8397849 C22.3376344,10.666129 22.694086,10.7301075 22.8677419,10.9860215 C24.1290323,12.8413978 25.8107527,14.4317204 27.7301075,15.5924731 C27.9951613,15.7569892 28.0865591,16.1043011 27.922043,16.3693548 C27.8215054,16.5430108 27.6387097,16.6435484 27.4467742,16.6435484 Z" id="Path"/>
                <path d="M7.75053763,27.6021505 C7.74139785,27.6021505 7.72311828,27.6021505 7.71397849,27.6021505 C4.78010753,27.4376344 2.04731183,26.1580645 0.219354839,24.0924731 C0.100537634,23.9645161 0.0456989247,23.7817204 0.0639784946,23.6080645 C0.0822580645,23.4344086 0.164516129,23.2698925 0.310752688,23.1602151 C3.01612903,21.0306452 3.67419355,17.5392473 3.96666667,14.4134409 C3.99408602,14.0752688 4.03064516,13.7462366 4.05806452,13.4080645 C4.32311828,10.3005376 4.60645161,7.08333333 6.53494624,4.38709677 C8.85645161,1.1516129 13.3623656,-1.14247312 17.6032258,0.612365591 C21.844086,-1.14247312 26.35,1.1516129 28.6715054,4.38709677 C30.6,7.08333333 30.8833333,10.3005376 31.1483871,13.4080645 C31.1758065,13.7462366 31.2032258,14.0844086 31.2397849,14.4134409 C31.5322581,17.5392473 32.1903226,21.0306452 34.8956989,23.1602151 C35.0327957,23.2698925 35.1241935,23.4344086 35.1424731,23.6080645 C35.1607527,23.7817204 35.0967742,23.9553763 34.9870968,24.0924731 C33.2231183,26.0849462 30.5817204,27.3645161 27.7483871,27.583871 C27.3919355,27.6112903 27.0811828,27.3462366 27.0537634,26.9989247 C27.0263441,26.6424731 27.2913978,26.3317204 27.6387097,26.3043011 C29.9053763,26.1215054 32.0349462,25.1892473 33.5612903,23.7086022 C30.9107527,21.2408602 30.2344086,17.5392473 29.9602151,14.5231183 C29.9327957,14.1849462 29.8962366,13.8467742 29.8688172,13.5086022 C29.6129032,10.5747312 29.3569892,7.5311828 27.6295699,5.11827957 C25.6188172,2.31236559 21.5150538,0.219354839 17.8774194,1.8827957 C17.7129032,1.95591398 17.511828,1.95591398 17.3473118,1.8827957 C13.7005376,0.219354839 9.60591398,2.31236559 7.59516129,5.11827957 C5.86774194,7.5311828 5.60268817,10.5655914 5.35591398,13.5086022 C5.32849462,13.8467742 5.30107527,14.1849462 5.26451613,14.5231183 C4.9811828,17.5301075 4.31397849,21.2408602 1.66344086,23.7086022 C3.24462366,25.2258065 5.49301075,26.1854839 7.81451613,26.3225806 C8.17096774,26.3408602 8.43602151,26.6424731 8.41774194,26.9989247 C8.37204301,27.3370968 8.08870968,27.6021505 7.75053763,27.6021505 Z" id="Path"/>
            </g>
            <g id="Group" transform="translate(12.521505, 41.586022)" stroke="#99248E">
                <polyline id="Path" points="24.7505376 12.0919355 22.3193548 4.50591398 24.9333333 2.87903226 22.3193548 0.191935484 19.7053763 2.87903226 22.3193548 4.50591398 19.8790323 12.0919355"/>
                <path d="M14.6053763,0.0731182796 C14.6053763,0.0731182796 2.23010753,2.94301075 1.11505376,5.26451613 C4.15629299e-14,7.57688172 4.15629299e-14,9.81612903 4.15629299e-14,9.81612903" id="Path"/>
                <path d="M30.0241935,0.0731182796 C30.0241935,0.0731182796 42.3994624,2.94301075 43.5145161,5.26451613 C44.6295699,7.57688172 44.6295699,9.81612903 44.6295699,9.81612903" id="Path"/>
            </g>
            <circle id="Oval" stroke="#99248E" fill="#FFFFFF" fill-rule="nonzero" cx="51.2741935" cy="44.9768817" r="9.69731183"/>
            <path d="M56.0360215,40.8639785 L46.5946237,40.8639785 C46.2016129,40.8639785 45.8817204,41.183871 45.8817204,41.5768817 L45.8817204,47.8376344 C45.8817204,48.2306452 46.2016129,48.5505376 46.5946237,48.5505376 L56.0360215,48.5505376 C56.4290323,48.5505376 56.7489247,48.2306452 56.7489247,47.8376344 L56.7489247,41.5768817 C56.7489247,41.1747312 56.4290323,40.8639785 56.0360215,40.8639785 Z M55.7892473,41.4123656 L51.4387097,45.7263441 C51.3747312,45.7903226 51.2650538,45.7903226 51.2010753,45.7263441 L46.8505376,41.4123656 L55.7892473,41.4123656 Z M46.4392473,47.5451613 L46.4392473,41.7688172 L49.1903226,44.5016129 L46.4392473,47.5451613 Z M46.7774194,47.9930108 L49.5833333,44.8946237 L50.8172043,46.1102151 C50.9543011,46.2473118 51.1370968,46.3204301 51.3198925,46.3204301 C51.5026882,46.3204301 51.6854839,46.2473118 51.8225806,46.1102151 L53.038172,44.9129032 L55.8623656,47.9930108 L46.7774194,47.9930108 Z M56.2005376,47.5543011 L53.4311828,44.5290323 L56.2005376,41.777957 L56.2005376,47.5543011 Z" id="Shape" fill="#99248E" fill-rule="nonzero"/>
            <path d="M34.85,39.5844086 C33.2596774,39.5844086 31.6693548,39.0725806 30.344086,38.0580645 L27.666129,36.0107527 C25.9478495,34.7037634 24.9150538,32.7112903 24.8145161,30.5543011 L24.4763441,22.9956989 C24.4580645,22.6849462 24.7048387,22.4198925 25.0155914,22.4016129 C25.3263441,22.3833333 25.5913978,22.6301075 25.6096774,22.9408602 L25.9478495,30.4994624 C26.0301075,32.3182796 26.9075269,34 28.3516129,35.105914 L31.0295699,37.1532258 C33.277957,38.8715054 36.422043,38.8715054 38.6704301,37.1532258 L41.3483871,35.105914 C42.7924731,34 43.6698925,32.3182796 43.7521505,30.4994624 L44.0629032,23.5349462 C44.0811828,23.2241935 44.3553763,22.9774194 44.6569892,22.9956989 C44.9677419,23.0139785 45.2145161,23.2790323 45.1962366,23.5897849 L44.8854839,30.5543011 C44.7849462,32.7112903 43.7521505,34.6946237 42.033871,36.0107527 L39.355914,38.0580645 C38.0306452,39.0725806 36.4403226,39.5844086 34.85,39.5844086 Z" id="Path" fill="#99248E" fill-rule="nonzero"/>
        </g>
    </g>
</svg>