<?xml version="1.0" encoding="UTF-8"?>
<svg width="68px" height="68px" viewBox="0 0 68 68" version="1.1" xmlns="http://www.w3.org/2000/svg" xmlns:xlink="http://www.w3.org/1999/xlink">
    <!-- Generator: Sketch 64 (93537) - https://sketch.com -->
    <title>EC</title>
    <desc>Created with Sketch.</desc>
    <g id="Page-1" stroke="none" stroke-width="1" fill="none" fill-rule="evenodd">
        <g id="EC">
            <circle id="Oval" stroke="#9B288C" stroke-width="2" fill="#FFFFFF" fill-rule="nonzero" cx="34.0091275" cy="33.9452349" r="32.9269799"></circle>
            <g id="Group-4" transform="translate(18.000000, 20.500000)" fill="#9B288C">
                <polygon id="Fill-1" points="4.14725 0.599812778 0.00147222222 24.120035 13.1013056 24.120035 13.8815833 19.7063128 5.82852778 19.7063128 6.86497222 13.8085906 12.4123056 13.8085906 13.0865833 9.995535 7.53925 9.995535 8.45202778 4.83686833 16.5021389 4.83686833 17.2500278 0.599812778"></polygon>
                <path d="M23.2437389,24.7201128 C18.2646833,24.7201128 15.9356278,21.5047794 16.6511278,17.4443906 L18.4472389,7.27427944 C19.1627389,3.21389056 22.6254056,-0.00144277778 27.6015167,-0.00144277778 C32.51285,-0.00144277778 34.5032944,2.93122389 33.81135,6.85027944 L33.4079611,9.14400167 L28.8882389,9.14400167 L29.2739611,6.95627944 C29.5595722,5.33389056 28.7910722,4.27389056 26.92135,4.27389056 C25.0486833,4.27389056 23.9032944,5.36627944 23.63535,6.88561278 L21.6979056,17.8683906 C21.4387944,19.3523906 22.1984611,20.4447794 24.0681833,20.4447794 C25.94085,20.4447794 27.08035,19.3877239 27.3659611,17.7623906 L27.7546278,15.5746683 L32.27435,15.5746683 L31.8680167,17.8683906 C31.1790167,21.7874461 28.1521278,24.7201128 23.2437389,24.7201128" id="Fill-2"></path>
            </g>
        </g>
    </g>
</svg>