<?xml version="1.0" encoding="UTF-8"?>
<svg width="68px" height="68px" viewBox="0 0 68 68" version="1.1" xmlns="http://www.w3.org/2000/svg" xmlns:xlink="http://www.w3.org/1999/xlink">
    <!-- Generator: Sketch 64 (93537) - https://sketch.com -->
    <title>entyvio-patient</title>
    <desc>Created with Sketch.</desc>
    <g id="Page-1" stroke="none" stroke-width="1" fill="none" fill-rule="evenodd">
        <g id="entyvio-patient">
            <circle id="Oval" stroke="#9B288C" stroke-width="2" fill="#FFFFFF" fill-rule="nonzero" cx="34.0281768" cy="34.0093923" r="32.9718232"></circle>
            <g id="Group" transform="translate(15.403315, 12.116022)" stroke="#99248E">
                <g transform="translate(8.546961, 0.000000)" id="Path">
                    <path d="M0.873480663,14.8209945 C0.873480663,14.8209945 0.948618785,19.2541436 0.178453039,21.498895 C-0.375690608,23.1049724 3.6441989,21.9497238 5.92651934,21.461326"></path>
                    <path d="M19.4138122,7.6640884 C19.4513812,7.98342541 19.479558,8.3121547 19.4983425,8.65966851 C19.5171271,9.00718232 19.5171271,9.3640884 19.5077348,9.73038674 C19.4983425,10.1342541 19.4701657,10.5662983 19.4325967,11.0077348 C19.5546961,11.1298343 18.0425414,12.6607735 15.2812155,6.99723757 C15.2812155,6.99723757 15.0464088,9.37348066 13.8911602,9.87127072 C11.4867403,10.9044199 4.54585635,10.8198895 2.00994475,8.40607735 C1.52154696,10.378453 -0.0281767956,10.9983425 0.0939226519,10.8856354 C0.0845303867,10.7353591 0.0751381215,10.5850829 0.0657458564,10.4348066 C0.0375690608,9.89005525 0.046961326,9.65524862 0.0375690608,8.89447514 C0.0281767956,8.13370166 0.23480663,6.33038674 0.967403315,5.00607735 C1.23038674,4.50828729 1.52154696,4.07624309 1.82209945,3.67237569 C2.12265193,3.26850829 2.44198895,2.90220994 2.77071823,2.57348066 C3.09944751,2.24475138 3.44696133,1.96298343 3.79447514,1.70939227 C4.82762431,0.967403315 5.92651934,0.554143646 6.9878453,0.338121547 C6.9878453,0.338121547 7.97403315,0.122099448 9.17624309,0.0939226519 L9.17624309,0.0939226519 C9.17624309,0.0939226519 12.4635359,-0.0187845304 13.5624309,1.31491713 C13.5624309,1.31491713 13.5624309,1.31491713 13.5624309,1.31491713 C13.6093923,1.30552486 15.3093923,0.948618785 16.9342541,2.46077348 C17.2348066,2.74254144 17.5353591,3.07127072 17.8171271,3.50331492 C18.7281768,4.9121547 19.2541436,6.43370166 19.4138122,7.6640884 Z"></path>
                    <path d="M18.6530387,14.8209945 C18.6530387,14.8209945 18.5779006,19.2541436 19.3480663,21.498895 C19.9022099,23.1049724 15.8729282,21.9497238 13.5906077,21.461326"></path>
                </g>
                <g transform="translate(0.000000, 9.580110)" id="Path">
                    <path d="M36.5546961,32.3469613 L36.5546961,26.6176796 C36.5546961,20.4281768 31.8867403,15.3939227 26.0917127,15.1685083 C25.960221,15.1685083 25.8287293,15.159116 25.6878453,15.159116 L24.8425414,15.159116 C24.5701657,15.159116 24.3071823,15.3 24.1569061,15.5441989 C23.9033149,15.938674 23.5088398,16.5303867 23.2270718,16.821547 C21.9685083,18.1646409 20.221547,18.9911602 18.2961326,18.9911602 C16.0044199,18.9911602 13.9756906,17.8171271 12.7077348,16.0138122 C12.6325967,15.9104972 12.538674,15.7508287 12.4447514,15.6005525 C12.2944751,15.3469613 12.0314917,15.1966851 11.7403315,15.1966851 L10.9044199,15.1966851 L10.9232044,15.1966851 C4.94033149,15.1966851 0.0845303867,20.3248619 0.0845303867,26.6552486 L0.0845303867,32.3845304"></path>
                    <path d="M9.23259669,3.66298343 C9.23259669,8.67845304 13.2994475,12.7359116 18.3055249,12.7359116 C23.3209945,12.7359116 27.378453,8.66906077 27.378453,3.66298343"></path>
                    <path d="M27.3878453,3.66298343 C27.3878453,2.80828729 27.3878453,2.43259669 27.1624309,1.65303867"></path>
                    <path d="M10.0027624,0.0845303867 C9.5519337,1.01436464 9.21381215,2.00055249 9.23259669,3.66298343"></path>
                </g>
                <line x1="18.3042998" y1="30.7596685" x2="18.3042998" y2="44.5662983" id="Path"></line>
                <line x1="30.7114821" y1="44.5662983" x2="30.7114821" y2="34.2254144" id="Path"></line>
                <line x1="6.61092962" y1="34.2254144" x2="6.61092962" y2="44.5662983" id="Path"></line>
            </g>
        </g>
    </g>
</svg>