<?xml version="1.0" encoding="UTF-8"?>
<svg width="66px" height="66px" viewBox="0 0 66 66" version="1.1" xmlns="http://www.w3.org/2000/svg" xmlns:xlink="http://www.w3.org/1999/xlink">
    <!-- Generator: Sketch 64 (93537) - https://sketch.com -->
    <title>Slice</title>
    <desc>Created with Sketch.</desc>
    <g id="Page-1" stroke="none" stroke-width="1" fill="none" fill-rule="evenodd">
        <g id="res-entyvioconnect" fill="#FFFFFF" fill-rule="nonzero" stroke="#9B288C" stroke-width="2">
            <circle id="Oval" cx="33.0091275" cy="32.9452349" r="31.9269799"/>
        </g>
        <g id="Vector-Smart-Object" fill="#99248E" fill-rule="nonzero">
            <g id="Group" transform="translate(19.222995, 11.323134)">
                <path d="M22.2688302,40.8686139 L4.61702983,40.8686139 C2.08029671,40.8686139 0.0263328698,38.81465 0.0263328698,36.2779169 L0.0263328698,32.6966466 C0.0263328698,32.2753207 0.342327307,31.9066605 0.763653224,31.8803277 C1.22008963,31.8539948 1.59752743,32.2138774 1.59752743,32.6703138 L1.59752743,36.2779169 C1.59752743,37.9456653 2.94928141,39.2974193 4.61702983,39.2974193 L22.2688302,39.2974193 C23.9365786,39.2974193 25.2883326,37.9456653 25.2883326,36.2779169 L25.2883326,32.6966466 C25.2883326,32.2753207 25.604327,31.9066605 26.025653,31.8803277 C26.4820894,31.8539948 26.8595551,32.2138774 26.8595551,32.6703138 L26.8595551,36.2779169 C26.8683048,38.8058724 24.8055633,40.8686139 22.2688302,40.8686139 Z M26.025653,9.01461909 C25.604327,8.98828622 25.2883326,8.61962604 25.2883326,8.19830012 L25.2883326,4.61702983 C25.2883326,2.94928141 23.9365786,1.59752743 22.2688302,1.59752743 L4.61702983,1.59752743 C2.94928141,1.59752743 1.59752743,2.94928141 1.59752743,4.61702983 L1.59752743,8.19830012 C1.59752743,8.61962604 1.281533,8.98828622 0.860207079,9.01461909 C0.40377067,9.04095196 0.0263328698,8.6810694 0.0263328698,8.22463299 L0.0263328698,4.61702983 C0.0263328698,2.08029671 2.08029671,0.0263328698 4.61702983,0.0263328698 L22.2688302,0.0263328698 C24.8055633,0.0263328698 26.8596739,2.08029671 26.8596739,4.61702983 L26.8596739,8.22463299 C26.8683048,8.6810694 26.4820894,9.04095196 26.025653,9.01461909 Z" id="Shape"/>
                <path d="M26.0783187,6.88165663 L0.842651833,6.88165663 C0.421325916,6.88165663 0.0526657396,6.5656622 0.0263328698,6.14433628 C-3.99125177e-14,5.68789987 0.359882554,5.31046207 0.816318963,5.31046207 L26.0519858,5.31046207 C26.4733117,5.31046207 26.8419719,5.62645651 26.8683048,6.04778243 C26.8946377,6.50421883 26.5259775,6.88165663 26.0783187,6.88165663 Z" id="Path"/>
                <path d="M26.0783187,35.5844847 L0.842651833,35.5844847 C0.421325916,35.5844847 0.0526657396,35.2684903 0.0263328698,34.8471643 C-3.99125177e-14,34.3907279 0.359882554,34.0132901 0.816318963,34.0132901 L26.0519858,34.0132901 C26.4733117,34.0132901 26.8419719,34.3292846 26.8683048,34.7506105 C26.8946377,35.1982693 26.5259775,35.5844847 26.0783187,35.5844847 Z" id="Path"/>
                <path d="M13.6930923,38.2265493 L13.210323,38.2265493 C12.7889971,38.2265493 12.4203369,37.9105549 12.394004,37.4892289 C12.3676712,37.0327925 12.7275537,36.6553547 13.1839901,36.6553547 L13.6667594,36.6553547 C14.0880853,36.6553547 14.4567455,36.9713492 14.4830784,37.3926751 C14.5094112,37.8403339 14.1495287,38.2265493 13.6930923,38.2265493 Z" id="Path"/>
                <path d="M13.420986,28.9047134 C13.280544,28.9047134 13.1488796,28.8696029 13.0259929,28.7993819 L6.39888736,24.9547829 C6.1531139,24.814341 6.00389431,24.5510123 6.00389431,24.2701283 L6.00389431,16.6248185 C6.00389431,16.3439345 6.1531139,16.0806058 6.39888736,15.9401638 L13.0259929,12.0955649 C13.2717664,11.9551229 13.5702056,11.9551229 13.815979,12.0955649 L20.4957503,15.9401638 C20.7415238,16.0806058 20.8907434,16.3439345 20.8907434,16.6248185 L20.8907434,24.2701283 C20.8907434,24.5510123 20.7415238,24.814341 20.4957503,24.9547829 L13.815979,28.7993819 C13.6930923,28.8696029 13.5526503,28.9047134 13.420986,28.9047134 Z M7.5838665,23.8136919 L13.420986,27.2018545 C13.420986,27.2018545 13.420986,27.2018545 13.420986,27.2018545 L19.3019935,23.8136919 C19.3019935,23.8136919 19.3019935,23.8136919 19.3019935,23.8136919 L19.3019935,17.0812549 C19.3019935,17.0812549 19.3019935,17.0812549 19.3019935,17.0812549 L13.420986,13.6930923 C13.420986,13.6930923 13.420986,13.6930923 13.420986,13.6930923 L7.5838665,17.0812549 C7.5838665,17.0812549 7.5838665,17.0812549 7.5838665,17.0812549 L7.5838665,23.8136919 C7.57508887,23.8136919 7.57508887,23.8136919 7.5838665,23.8136919 Z" id="Shape"/>
                <path d="M13.420986,21.2506259 C13.2893216,21.2506259 13.1488796,21.2155154 13.0259929,21.1452944 L6.39888736,17.3006954 C6.02144956,17.0812549 5.89856283,16.5984856 6.10922579,16.2210478 C6.32866637,15.84361 6.81143565,15.7207233 7.18887345,15.9313862 L13.815979,19.7759852 C14.1934168,19.9954258 14.3250812,20.4781951 14.1056406,20.8556329 C13.956421,21.1101839 13.6930923,21.2506259 13.420986,21.2506259 Z" id="Path"/>
                <path d="M13.420986,21.2506259 C13.1488796,21.2506259 12.8855509,21.1101839 12.7363313,20.8556329 C12.5168908,20.4781951 12.6485551,19.9954258 13.0259929,19.7759852 L19.7057642,15.9313862 C20.083202,15.7119456 20.5659713,15.84361 20.7854119,16.2210478 C21.0048525,16.5984856 20.8731881,17.0812549 20.4957503,17.3006954 L13.815979,21.1452944 C13.6930923,21.224293 13.5526503,21.2506259 13.420986,21.2506259 Z" id="Path"/>
                <path d="M13.3683202,28.9047134 C12.9469943,28.8783805 12.6309999,28.5097203 12.6309999,28.0883944 L12.6309999,20.5045279 C12.6309999,20.083202 12.9469943,19.7145418 13.3683202,19.688209 C13.8247566,19.6618761 14.2021944,20.0217587 14.2021944,20.4781951 L14.2021944,28.1322825 C14.2109721,28.5711637 13.8247566,28.9310463 13.3683202,28.9047134 Z" id="Path"/>
                <path d="M0.763653224,15.6856128 C0.342327307,15.6592799 0.0263328698,15.2906197 0.0263328698,14.8692938 L0.0263328698,10.7789214 C0.0263328698,10.3400402 0.3774378,9.98893527 0.816318963,9.98893527 L5.04713337,9.98893527 C5.46845929,9.98893527 5.83711947,10.3049297 5.86345234,10.7262556 C5.88978521,11.182692 5.52990265,11.5601298 5.07346624,11.5601298 L1.59752743,11.5601298 C1.59752743,11.5601298 1.59752743,11.5601298 1.59752743,11.5601298 L1.59752743,14.8956267 C1.59752743,15.3520631 1.22008963,15.7207233 0.763653224,15.6856128 Z" id="Path"/>
                <path d="M26.025653,15.6856128 C25.604327,15.6592799 25.2883326,15.2906197 25.2883326,14.8692938 L25.2883326,11.5689075 C25.2883326,11.5689075 25.2883326,11.5689075 25.2883326,11.5689075 L21.8036162,11.5689075 C21.3822903,11.5689075 21.0136301,11.252913 20.9872972,10.8315871 C20.9609643,10.3751507 21.3208469,9.99771289 21.7772833,9.99771289 L26.0870963,9.99771289 C26.5259775,9.99771289 26.8770824,10.3488178 26.8770824,10.787699 L26.8770824,14.9131819 C26.8683048,15.3520631 26.4820894,15.7207233 26.025653,15.6856128 Z" id="Path"/>
                <path d="M26.0695411,30.8972339 L21.7948386,30.8972339 C21.3735126,30.8972339 21.0048525,30.5812394 20.9785196,30.1599135 C20.9521867,29.7034771 21.3120693,29.3260393 21.7685057,29.3260393 L25.2883326,29.3260393 C25.2883326,29.3260393 25.2883326,29.3260393 25.2883326,29.3260393 L25.2883326,26.025653 C25.2883326,25.604327 25.604327,25.2356669 26.025653,25.209334 C26.4820894,25.1830011 26.8595272,25.5428837 26.8595272,25.9993201 L26.8595272,30.124803 C26.8683048,30.5461289 26.5084222,30.8972339 26.0695411,30.8972339 Z" id="Path"/>
                <path d="M5.07346624,30.8972339 L0.816318963,30.8972339 C0.3774378,30.8972339 0.0263328698,30.5461289 0.0263328698,30.1072478 L0.0263328698,26.0168753 C0.0263328698,25.5955494 0.342327307,25.2268892 0.763653224,25.2005564 C1.22008963,25.1742235 1.59752743,25.5341061 1.59752743,25.9905425 L1.59752743,29.3260393 C1.59752743,29.3260393 1.59752743,29.3260393 1.59752743,29.3260393 L5.03835575,29.3260393 C5.45968167,29.3260393 5.82834184,29.6420337 5.85467471,30.0633597 C5.88978521,30.5197961 5.52990265,30.8972339 5.07346624,30.8972339 Z" id="Path"/>
            </g>
        </g>
    </g>
</svg>