<?xml version="1.0" encoding="UTF-8"?>
<svg width="53px" height="53px" viewBox="0 0 53 53" version="1.1" xmlns="http://www.w3.org/2000/svg" xmlns:xlink="http://www.w3.org/1999/xlink">
    <title>Group 2</title>
    <g id="Page-1" stroke="none" stroke-width="1" fill="none" fill-rule="evenodd">
        <g id="3-resources" transform="translate(-205.000000, -1049.000000)">
            <g id="Group-4" transform="translate(112.000000, 917.000000)">
                <g id="Group-2" transform="translate(93.000000, 132.000000)">
                    <circle id="Oval-Copy" stroke="#9B288C" stroke-width="1.5" cx="26.5" cy="26.5" r="25.75"/>
                    <g id="Group-4" transform="translate(9.088235, 13.000000)" fill="#9A258D">
                        <path d="M11.9795514,16.9311291 L17.8846941,16.9311291 L17.8846941,14.9018776 L11.9795514,14.9018776 L11.9795514,16.9311291 Z M5.93883535,11.627926 L11.8434645,11.627926 L11.8434645,9.5986746 L5.93883535,9.5986746 L5.93883535,11.627926 Z M5.93883535,6.09812235 L11.8434645,6.09812235 L11.8434645,4.06887092 L5.93883535,4.06887092 L5.93883535,6.09812235 Z M18.3982294,13.8330067 L11.466016,13.8330067 C11.1825445,13.8330067 10.9524807,14.0718994 10.9524807,14.3674422 L10.9524807,15.3818007 L9.40468525,15.3818007 L9.40468525,12.696797 L12.3569998,12.696797 C12.6404713,12.696797 12.8705352,12.4579043 12.8705352,12.1623615 L12.8705352,9.06423914 C12.8705352,8.76869633 12.6404713,8.52980368 12.3569998,8.52980368 L9.40468525,8.52980368 L9.40468525,7.16699327 L12.3569998,7.16699327 C12.6404713,7.16699327 12.8705352,6.92810062 12.8705352,6.63255781 L12.8705352,3.53443546 C12.8705352,3.23942709 12.6404713,3 12.3569998,3 L5.42530003,3 C5.141315,3 4.91176471,3.23942709 4.91176471,3.53443546 L4.91176471,6.63255781 C4.91176471,6.92810062 5.141315,7.16699327 5.42530003,7.16699327 L8.37761461,7.16699327 L8.37761461,8.52980368 L5.42530003,8.52980368 C5.141315,8.52980368 4.91176471,8.76869633 4.91176471,9.06423914 L4.91176471,12.1623615 C4.91176471,12.4579043 5.141315,12.696797 5.42530003,12.696797 L8.37761461,12.696797 L8.37761461,15.9162361 C8.37761461,16.211779 8.6071649,16.4506716 8.89114993,16.4506716 L10.9524807,16.4506716 L10.9524807,17.4655645 C10.9524807,17.7605729 11.1825445,18 11.466016,18 L18.3982294,18 C18.6822144,18 18.9117647,17.7605729 18.9117647,17.4655645 L18.9117647,14.3674422 C18.9117647,14.0718994 18.6822144,13.8330067 18.3982294,13.8330067 L18.3982294,13.8330067 Z" id="Fill-1"/>
                        <path d="M34.8511586,17.5809391 C34.8511586,18.1451071 34.3919162,18.6048192 33.8266132,18.6048192 L33.6113102,18.6048192 L33.6113102,15.5920347 C33.6113102,15.2988158 33.3742647,15.0618016 33.0810071,15.0618016 C32.7877496,15.0618016 32.5507041,15.2988158 32.5507041,15.5920347 L32.5507041,25.2136447 C32.5507041,25.5148171 32.3051738,25.760315 32.0039617,25.760315 L30.5933556,25.760315 L30.5933556,19.1668663 C30.5933556,18.8736474 30.3557799,18.636103 30.0630526,18.636103 C29.769795,18.636103 29.5327496,18.8736474 29.5327496,19.1668663 L29.5327496,25.760315 L28.1030526,25.760315 C27.8018405,25.760315 27.5563102,25.5148171 27.5563102,25.2136447 L27.5563102,15.2935135 C27.5563102,14.6312523 27.0180526,14.0925355 26.3551738,14.0925355 L23.5509314,14.0925355 C23.2566132,14.0925355 22.9782041,13.9785354 22.7687344,13.7712142 L20.4104768,11.4440211 C20.2588102,11.2929047 20.174492,11.093537 20.1723289,10.8830345 C20.1702496,10.6767738 20.2487344,10.4832387 20.3924465,10.3395456 C20.5388102,10.1932012 20.7307799,10.1205593 20.9264617,10.1205593 C21.1322193,10.1205593 21.3411586,10.201685 21.5029011,10.3634061 L23.317598,12.1184776 C23.7259314,12.5124408 24.2620677,12.7298364 24.829492,12.7298364 L32.2510829,12.7298364 C33.6850223,12.7298364 34.8511586,13.895819 34.8511586,15.3295693 L34.8511586,17.5809391 Z M1.97237077,19.0735453 L1.97237077,1.06046621 L27.9476738,1.06046621 L27.9476738,6.31242513 C27.3203253,6.90257458 26.9252496,7.73769172 26.9252496,8.66559965 C26.9252496,10.0272383 27.7726738,11.1932209 28.9674465,11.6693702 L24.829492,11.6693702 C24.5388859,11.6693702 24.2636586,11.5580212 24.0552496,11.3565327 L22.2463859,9.60729365 C21.5235829,8.88458593 20.3553253,8.87716266 19.642598,9.58979596 C19.2957799,9.93656841 19.1075223,10.3994619 19.1117647,10.8931089 C19.1165374,11.3835746 19.3111586,11.8454076 19.6627496,12.1964219 L22.0241889,14.5262662 C22.4335829,14.9303038 22.9755526,15.1530017 23.5509314,15.1530017 L26.3551738,15.1530017 C26.432598,15.1530017 26.4957041,15.2160994 26.4957041,15.2935135 L26.4957041,19.0735453 L1.97237077,19.0735453 Z M32.3332799,8.66559965 C32.3332799,9.86392647 31.3580526,10.8390252 30.1595677,10.8390252 C28.9610829,10.8390252 27.9858556,9.86392647 27.9858556,8.66559965 C27.9858556,7.46727283 28.9610829,6.49217415 30.1595677,6.49217415 C31.3580526,6.49217415 32.3332799,7.46727283 32.3332799,8.66559965 L32.3332799,8.66559965 Z M32.2510829,11.6693702 L31.3516889,11.6693702 C32.5464617,11.1932209 33.3938859,10.0272383 33.3938859,8.66559965 C33.3938859,6.88189549 31.9435071,5.43170794 30.1595677,5.43170794 C29.7538859,5.43170794 29.3667647,5.51018244 29.0082799,5.64698258 L29.0082799,0.530233106 C29.0082799,0.237014198 28.7712344,0 28.4779768,0 L1.44206774,0 C1.14881016,0 0.911764706,0.237014198 0.911764706,0.530233106 L0.911764706,19.6037784 C0.911764706,19.8969973 1.14881016,20.1340115 1.44206774,20.1340115 L12.2560071,20.1340115 L7.52782531,25.955971 C7.34327986,26.1839712 7.37721925,26.5174879 7.60471925,26.702009 C7.70335561,26.781544 7.82161319,26.8207812 7.93881016,26.8207812 C8.09312834,26.8207812 8.24638592,26.7534416 8.35085561,26.6251252 L13.622598,20.1340115 L14.4302496,20.1340115 L14.4302496,26.4697669 C14.4302496,26.7629858 14.667295,27 14.9605526,27 C15.2538102,27 15.4908556,26.7629858 15.4908556,26.4697669 L15.4908556,20.1340115 L16.2990374,20.1340115 L21.5707799,26.6251252 C21.6757799,26.7534416 21.8285071,26.8207812 21.9828253,26.8207812 C22.1000223,26.8207812 22.2188102,26.781544 22.3169162,26.702009 C22.5444162,26.5174879 22.5783556,26.1829108 22.3943405,25.955971 L17.6656283,20.1340115 L26.4957041,20.1340115 L26.4957041,25.2136447 C26.4957041,26.1001944 27.2169162,26.8207812 28.1030526,26.8207812 L32.0039617,26.8207812 C32.8906283,26.8207812 33.6113102,26.1001944 33.6113102,25.2136447 L33.6113102,19.6647552 L33.8266132,19.6647552 C34.9763102,19.6647552 35.9117647,18.7299542 35.9117647,17.5809391 L35.9117647,15.3295693 C35.9117647,13.3109719 34.2694162,11.6693702 32.2510829,11.6693702 L32.2510829,11.6693702 Z" id="Fill-3"/>
                    </g>
                </g>
            </g>
        </g>
    </g>
</svg>