<?xml version="1.0" encoding="UTF-8"?>
<svg width="68px" height="68px" viewBox="0 0 68 68" version="1.1" xmlns="http://www.w3.org/2000/svg" xmlns:xlink="http://www.w3.org/1999/xlink">
    <!-- Generator: Sketch 64 (93537) - https://sketch.com -->
    <title>clinical-reprints</title>
    <desc>Created with Sketch.</desc>
    <g id="Page-1" stroke="none" stroke-width="1" fill="none" fill-rule="evenodd">
        <g id="clinical-reprints" fill-rule="nonzero">
            <circle id="Oval" stroke="#9B288C" stroke-width="2" fill="#FFFFFF" cx="33.9634899" cy="33.9908725" r="32.9269799"/>
            <g id="Group" transform="translate(14.877852, 15.699329)" fill="#99248E">
                <path d="M19.1951678,24.2974497 C18.757047,24.2974497 18.3919463,23.9414765 18.3919463,23.5124832 L18.3919463,6.21583893 C18.3919463,5.77771812 18.757047,5.43087248 19.1951678,5.43087248 C19.6332886,5.43087248 19.9983893,5.78684564 19.9983893,6.21583893 L19.9983893,23.5124832 C19.9983893,23.9414765 19.6332886,24.2974497 19.1951678,24.2974497 L19.1951678,24.2974497 Z" id="Path"/>
                <path d="M39.2939597,37.6692617 C39.0018792,37.9522148 38.4998658,37.9522148 38.2169128,37.6601342 L37.3680537,36.7930201 L38.4724832,35.7068456 L39.3213423,36.5739597 C39.6225503,36.8751678 39.6134228,37.3589262 39.2939597,37.6692617 L39.2939597,37.6692617 Z M36.2727517,35.6703356 L24.762953,23.914094 L24.1514094,22.1798658 L25.8673826,22.8279195 L37.3771812,34.5841611 L36.2727517,35.6703356 L36.2727517,35.6703356 Z M23.384698,29.3267114 C22.7457718,29.3267114 21.5591946,29.3267114 20.8472483,30.4950336 C20.0257718,31.845906 18.3097987,31.8367785 17.4883221,30.4950336 C16.7855034,29.3267114 15.5897987,29.3267114 14.9508725,29.3267114 C14.8230872,29.3267114 1.5242953,29.3358389 1.5242953,29.3358389 L1.5242953,3.74228188 L2.74738255,3.74228188 L2.74738255,27.2912752 C2.74738255,27.8206711 3.26765101,28.2040268 3.76966443,28.0397315 C3.8061745,28.030604 7.72187919,26.8166443 11.4550336,27.0539597 C12.8697987,27.1452349 17.3605369,28.5234899 18.9761074,29.0528859 C19.1312752,29.107651 19.3138255,29.107651 19.4781208,29.0437584 C20.7468456,28.5965101 23.950604,27.5377181 25.7395973,27.1726174 L27.8480681,29.3267114 C27.8571812,29.3358389 23.5124832,29.3267114 23.384698,29.3267114 L23.384698,29.3267114 Z M4.36295302,2.51919463 C5.48563758,2.28187919 8.60724832,1.75248322 11.5919463,1.66120805 C14.7409396,1.5790604 18.8209396,3.58711409 18.8665772,3.60536913 C19.0856376,3.71489933 19.3503356,3.71489933 19.5785235,3.60536913 C19.6150336,3.58711409 23.0834899,1.88939597 26.5336913,1.65208054 C28.4322148,1.5242953 30.9331544,1.97154362 32.6947651,2.47355705 L32.6947651,26.1959732 C32.2383893,26.0681879 31.6542282,25.9130201 30.9787919,25.7852349 L26.8714094,21.5865772 C26.7892617,21.5044295 26.6979866,21.4405369 26.5884564,21.3948993 L23.1291275,20.0987919 C22.5084564,19.8614765 21.8877852,20.4638926 22.1068456,21.0936913 L23.3299329,24.5804027 C23.366443,24.6899329 23.4303356,24.7903356 23.5124832,24.8724832 L24.4708725,25.8491275 C22.5084564,26.3511409 20.0257718,27.181745 19.2316779,27.4555705 C18.0633557,27.0813423 13.2805369,25.5844295 11.5828188,25.4657718 C9.27355705,25.310604 6.59919463,25.6757047 4.36295302,26.2324832 L4.36295302,2.51919463 L4.36295302,2.51919463 Z M33.8265772,27.9393289 C34.0365101,27.7932886 34.1277852,27.5468456 34.1277852,27.2912752 L34.1277852,3.74228188 L35.2778523,3.74228188 L35.2778523,29.3358389 L34.4289933,29.3358389 L33.1602685,28.0397315 C33.3975839,28.1127517 33.6257718,28.0762416 33.8265772,27.9393289 L33.8265772,27.9393289 Z M40.4440268,35.4695302 L35.9715436,30.8966443 L36.0445638,30.8966443 C36.473557,30.8966443 36.8112752,30.5406711 36.8112752,30.1116779 L36.8112752,2.94818792 C36.8112752,2.51006711 36.4644295,2.16322148 36.0445638,2.16322148 L34.1277852,2.16322148 L34.1277852,1.88939597 C34.1277852,1.55167785 33.9452349,1.24134228 33.6166443,1.1409396 C33.470604,1.09530201 29.6279195,-0.136912752 26.387651,0.0912751678 C23.2477852,0.31033557 20.2265772,1.5790604 19.2042953,2.03543624 C18.0907383,1.51516779 14.5310067,-0.0182550336 11.5189262,0.0912751678 C9.44697987,0.155167785 7.35677852,0.419865772 5.96939597,0.638926174 C3.12161074,1.07704698 2.75651007,1.1409396 2.75651007,1.88939597 L2.75651007,2.16322148 L0.766711409,2.16322148 C0.337718121,2.16322148 -4.15071408e-14,2.51919463 -4.15071408e-14,2.94818792 L-4.15071408e-14,30.1208054 C-4.15071408e-14,30.5589262 0.346845638,30.9057718 0.766711409,30.9057718 C0.766711409,30.9057718 14.8413423,30.8966443 14.96,30.8966443 C15.7084564,30.8966443 15.9914094,30.997047 16.1830872,31.3165101 C17.5978523,33.6531544 20.7285906,33.6531544 22.1524832,31.3165101 C22.3441611,30.997047 22.6362416,30.8966443 23.3755705,30.8966443 C23.4942282,30.8966443 29.390604,30.9057718 29.390604,30.9057718 L37.0851007,38.7645638 C37.9613423,39.6590604 39.421745,39.7320805 40.4075168,38.7736913 C41.329396,37.8700671 41.347651,36.3914094 40.4440268,35.4695302 L40.4440268,35.4695302 Z" id="Shape"/>
            </g>
        </g>
    </g>
</svg>