<?xml version="1.0" encoding="UTF-8"?>
<svg width="68px" height="68px" viewBox="0 0 68 68" version="1.1" xmlns="http://www.w3.org/2000/svg" xmlns:xlink="http://www.w3.org/1999/xlink">
    <!-- Generator: Sketch 64 (93537) - https://sketch.com -->
    <title>infusion-locator</title>
    <desc>Created with Sketch.</desc>
    <g id="Page-1" stroke="none" stroke-width="1" fill="none" fill-rule="evenodd">
        <g id="infusion-locator" fill="#FFFFFF" fill-rule="nonzero">
            <circle id="Oval" stroke="#9B288C" stroke-width="2" cx="34.0281768" cy="34.0093923" r="32.9718232"></circle>
            <g id="Group" transform="translate(20.099448, 13.243094)" stroke="#99248E">
                <path d="M14.0226519,7.61712707 C10.5662983,7.57016575 7.67348066,10.3314917 7.62651934,13.7502762 C7.57955801,17.2911602 10.3314917,20.0712707 13.919337,20.118232 C17.3005525,20.1558011 20.1651934,17.3944751 20.2121547,14.0508287 C20.259116,10.5099448 17.5259669,7.67348066 14.0226519,7.61712707 Z M20.2027624,14.0508287 C20.1558011,17.3850829 17.3005525,20.1464088 13.919337,20.1088398 C10.3314917,20.0712707 7.58895028,17.2911602 7.6359116,13.7502762 C7.68287293,10.340884 10.5662983,7.57955801 14.0226519,7.62651934 C17.5165746,7.68287293 20.2497238,10.519337 20.2027624,14.0508287 Z" id="Shape"></path>
                <path d="M27.5756906,11.7403315 C26.7022099,6.23646409 22.4287293,1.66243094 16.9906077,0.441436464 C16.258011,0.272375691 15.5066298,0.187845304 14.7552486,0.0563535912 C14.201105,0.0563535912 13.6375691,0.0563535912 13.0834254,0.0563535912 C12.2662983,0.197237569 11.4303867,0.291160221 10.6226519,0.48839779 C4.27348066,2.05690608 -0.103314917,7.87071823 0.0751381215,14.5110497 C0.140883978,16.821547 0.713812155,18.9723757 1.92541436,20.9823204 C5.52265193,26.9370166 9.05414365,32.938674 12.6138122,38.9121547 C13.1116022,39.7574586 13.6187845,40.5933702 14.1447514,41.4762431 C14.2668508,41.260221 14.3701657,41.1099448 14.4546961,40.9502762 C17.8828729,34.9674033 21.320442,28.9845304 24.7392265,23.0016575 C25.4060773,21.8370166 26.1480663,20.7005525 26.6928177,19.4701657 C27.7917127,17 27.9983425,14.3983425 27.5756906,11.7403315 Z M20.2121547,14.0508287 C20.1651934,17.3944751 17.3099448,20.1558011 13.919337,20.118232 C10.3314917,20.080663 7.57955801,17.3005525 7.62651934,13.7502762 C7.67348066,10.340884 10.5569061,7.57016575 14.0226519,7.61712707 C17.5259669,7.67348066 20.259116,10.5099448 20.2121547,14.0508287 Z" id="Shape" stroke-width="2"></path>
            </g>
        </g>
    </g>
</svg>