<svg id="Layer_1" data-name="Layer 1" xmlns="http://www.w3.org/2000/svg" xmlns:xlink="http://www.w3.org/1999/xlink" viewBox="0 0 48.97 54.9"><defs><style>.cls-1,.cls-4{fill:none;}.cls-2{clip-path:url(#clip-path);}.cls-3{fill:#9b288c;}.cls-4{stroke:#99258e;stroke-miterlimit:10;stroke-width:0.5px;}</style><clipPath id="clip-path" transform="translate(0 0)"><rect class="cls-1" width="48.97" height="54.9"/></clipPath></defs><title>safety-adverse-reactions</title><g class="cls-2"><path class="cls-3" d="M24.49,54.65c-6.09,0-10.86-11.93-10.86-27.17v-.8a1,1,0,1,1,2.09,0v.8c0,14.77,4.63,25.07,8.77,25.07s8.77-10.3,8.77-25.07S28.64,2.35,24.49,2.35c-3.33,0-6.54,6-8,14.92a1,1,0,0,1-2.07-.33C16.1,6.64,20,.25,24.49.25c6.1,0,10.87,12,10.87,27.23S30.59,54.65,24.49,54.65" transform="translate(0 0)"/><path class="cls-4" d="M24.49,54.65c-6.09,0-10.86-11.93-10.86-27.17v-.8a1,1,0,1,1,2.09,0v.8c0,14.77,4.63,25.07,8.77,25.07s8.77-10.3,8.77-25.07S28.64,2.35,24.49,2.35c-3.33,0-6.54,6-8,14.92a1,1,0,0,1-2.07-.33C16.1,6.64,20,.25,24.49.25c6.1,0,10.87,12,10.87,27.23S30.59,54.65,24.49,54.65Z" transform="translate(0 0)"/><path class="cls-3" d="M24.49,30.88a3.43,3.43,0,1,1,0-6.86,1.05,1.05,0,1,1,0,2.1,1.33,1.33,0,1,0,0,2.66,1.35,1.35,0,0,0,1.36-1.3,1.05,1.05,0,0,1,2.1,0,3.44,3.44,0,0,1-3.46,3.4" transform="translate(0 0)"/><path class="cls-4" d="M24.49,30.88a3.43,3.43,0,1,1,0-6.86,1.05,1.05,0,1,1,0,2.1,1.33,1.33,0,1,0,0,2.66,1.35,1.35,0,0,0,1.36-1.3,1.05,1.05,0,0,1,2.1,0A3.44,3.44,0,0,1,24.49,30.88Z" transform="translate(0 0)"/><path class="cls-3" d="M8.23,44.11c-3.54,0-6.11-1-7.31-3.07-3.08-5.34,4.7-15.22,18.11-23,13.22-7.62,26-9.47,29-4.19s-5,15.39-18.17,23a5.73,5.73,0,0,1-.73.46,1.05,1.05,0,0,1-1.41-.47,1.07,1.07,0,0,1,.47-1.41,2.39,2.39,0,0,0,.41-.26l.22-.14c12.79-7.37,19.43-16.52,17.39-20.12s-13.34-2.43-26.16,5C7.09,27.39.63,36.34,2.74,40c1.67,2.87,8.61,2.66,16.87-.51a1.05,1.05,0,0,1,1.36.6,1.07,1.07,0,0,1-.61,1.36A35.27,35.27,0,0,1,8.23,44.11" transform="translate(0 0)"/><path class="cls-4" d="M8.23,44.11c-3.54,0-6.11-1-7.31-3.07-3.08-5.34,4.7-15.22,18.11-23,13.22-7.62,26-9.47,29-4.19s-5,15.39-18.17,23a5.73,5.73,0,0,1-.73.46,1.05,1.05,0,0,1-1.41-.47,1.07,1.07,0,0,1,.47-1.41,2.39,2.39,0,0,0,.41-.26l.22-.14c12.79-7.37,19.43-16.52,17.39-20.12s-13.34-2.43-26.16,5C7.09,27.39.63,36.34,2.74,40c1.67,2.87,8.61,2.66,16.87-.51a1.05,1.05,0,0,1,1.36.6,1.07,1.07,0,0,1-.61,1.36A35.27,35.27,0,0,1,8.23,44.11Z" transform="translate(0 0)"/><path class="cls-3" d="M40.75,44c-5.63,0-13.58-2.5-21.72-7.19C5.62,29.08-2.16,19.2.92,13.86c1.56-2.67,5.53-3.62,11.2-2.69A55.38,55.38,0,0,1,29.9,18.05a6.44,6.44,0,0,1,.73.4,1,1,0,0,1-1.16,1.75,5.93,5.93,0,0,0-.57-.3,53.25,53.25,0,0,0-17.13-6.66c-4.66-.77-8-.16-9,1.67C.63,18.56,7.1,27.51,20.08,35S44.16,43.57,46.25,40c1.61-2.85-2.08-8.76-9-14.34A1.05,1.05,0,0,1,38.62,24c8.05,6.54,11.68,13.06,9.45,17-1.18,2-3.79,3-7.32,3" transform="translate(0 0)"/><path class="cls-4" d="M40.75,44c-5.63,0-13.58-2.5-21.72-7.19C5.62,29.08-2.16,19.2.92,13.86c1.56-2.67,5.53-3.62,11.2-2.69A55.38,55.38,0,0,1,29.9,18.05a6.44,6.44,0,0,1,.73.4,1,1,0,0,1-1.16,1.75,5.93,5.93,0,0,0-.57-.3,53.25,53.25,0,0,0-17.13-6.66c-4.66-.77-8-.16-9,1.67C.63,18.56,7.1,27.51,20.08,35S44.16,43.57,46.25,40c1.61-2.85-2.08-8.76-9-14.34A1.05,1.05,0,0,1,38.62,24c8.05,6.54,11.68,13.06,9.45,17C46.89,43.06,44.28,44,40.75,44Z" transform="translate(0 0)"/></g></svg>