<?xml version="1.0" encoding="UTF-8"?>
<svg width="26px" height="32px" viewBox="0 0 26 32" version="1.1" xmlns="http://www.w3.org/2000/svg" xmlns:xlink="http://www.w3.org/1999/xlink">
    <!-- Generator: Sketch 64 (93537) - https://sketch.com -->
    <title>scroll</title>
    <desc>Created with Sketch.</desc>
    <g id="Page-1" stroke="none" stroke-width="1" fill="none" fill-rule="evenodd">
        <g id="SLICES" transform="translate(-215.000000, -1032.000000)"></g>
        <path d="M11.8277707,13.5250496 C11.8277707,9.19171624 11.8277707,6.02504957 11.8277707,4.02504957 C11.8277707,1.52504957 7.8277707,1.52504957 7.8277707,4.02504957 C7.8277707,4.35838291 7.8277707,9.20546124 7.8277707,18.5662846 C6.49443736,16.8721279 5.3277707,15.5250496 4.3277707,14.5250496 C2.8277707,13.0250496 -0.172229303,14.5250496 1.8277707,17.5250496 C2.64192875,18.7462866 3.85739441,21.7375994 5.32560762,24.5250496 C7.46409759,28.5850418 9.43838923,31.5250496 10.3277707,31.5250496 C11.8277707,31.5250496 17.8277707,31.5250496 20.3277707,31.5250496 C21.3277707,31.0250496 25,26.5 24.8277707,25.5250496 C24.8277707,24.5250496 24.8277707,21.3583829 24.8277707,16.0250496 C24.9391045,14.0250496 24.1614381,13.0250496 22.4947714,13.0250496 C21.4947714,13.0250496 20.8281048,13.6917162 20.4947714,15.0250496 C20.4947714,13.0250496 19.6614381,12.0250496 17.9947714,12.0250496 C16.9947714,12.0250496 16.3281048,12.6917162 15.9947714,14.0250496 C15.9947714,11.6917162 15.3281048,10.5250496 13.9947714,10.5250496 C12.6614381,10.5250496 11.9391045,11.5250496 11.8277707,13.5250496 Z" id="Path-18" stroke="#99258E" stroke-linecap="round" stroke-linejoin="round"></path>
        <path d="M15.954743,0.621583848 L16.6618498,1.32869063 L15.4186308,2.57058385 L20.5265098,2.57069609 L20.5265098,3.57069609 L15.4206308,3.57058385 L16.6618498,4.81270155 L15.954743,5.51980833 L13.5056308,3.07069609 L15.954743,0.621583848 Z" id="Combined-Shape" fill="#99258E" transform="translate(17.016070, 3.070696) rotate(180.000000) translate(-17.016070, -3.070696) "></path>
    </g>
</svg>