<svg xmlns="http://www.w3.org/2000/svg" viewBox="0 0 590 590"><defs><style>.cls-1{fill:#edd3ea;}.cls-1,.cls-2{stroke:#9a248f;stroke-width:10px;isolation:isolate;}.cls-2{fill:#9a248f;}.cls-3{fill:#fff;}</style></defs><g id="Layer_2" data-name="Layer 2"><g id="Layer_1-2" data-name="Layer 1"><circle class="cls-1" cx="295" cy="295" r="290"/><circle class="cls-1" cx="295" cy="295" r="186.01"/><circle class="cls-2" cx="295" cy="295" r="163.23"/><path class="cls-3" d="M241.1,356.14H216.8L204.88,230.6h25.65l3.65,69.21.7,28.43,12.8-28.43,32.8-69.21H306.4Z"/><path class="cls-3" d="M336.23,358.29c-29.16,0-41.35-16.37-36.5-39.17l1-4.83h21.33l-.63,2.95c-3.31,15.56,5.16,21.46,18.93,21.46,13.23,0,21.23-5.9,23.4-16.09,2-9.66-1.28-15.56-21.13-22.54-22.92-7.77-32.3-18.24-28.43-36.48,4-19,23.73-35.41,49.65-35.41,28.62,0,39.27,13.41,34.42,36.22l-.51,2.41H377l.4-1.88c2.28-10.73-3.27-16.36-17.85-16.36-11.88,0-19.72,5.1-21.54,13.68-1.94,9.12,2.82,13.41,24.33,21.46,22.86,8.05,29.05,19.58,25.17,37.82C383.52,340.31,364.58,358.29,336.23,358.29Z"/></g></g></svg>