<?xml version="1.0" encoding="UTF-8"?>
<svg width="491px" height="217px" viewBox="0 0 491 217" version="1.1" xmlns="http://www.w3.org/2000/svg" xmlns:xlink="http://www.w3.org/1999/xlink">
    <!-- Generator: Sketch 64 (93537) - https://sketch.com -->
    <title>logo-varsity</title>
    <desc>Created with Sketch.</desc>
    <defs>
        <path d="M480.6,54.5 C477.9,54.7 475.6,55.8 473.9,58.1 C468.3,65.9 462.6,73.6 456.9,81.3 C455.1,83.7 453.4,86.1 451.5,88.6 C451.2,88 451,87.6 450.8,87.2 C449.4,84.4 448,81.7 446.6,78.9 C445.3,76.3 443.4,74.9 440.3,75.1 C438.4,75.2 436.5,75.2 434.5,75.2 C433.3,75.2 432.2,75.2 431,75.2 C430.1,75.2 429.2,75.3 428.3,75.5 C425.9,76.1 425.4,77.1 426.5,79.4 C430.4,87.1 434.4,94.8 438.3,102.6 C438.5,103.1 438.7,103.7 438.6,104.2 C438.4,106 438.1,107.8 437.9,109.6 C436,123 434.1,136.4 432.2,149.9 C431.9,152.2 433.1,153.9 435.4,154.1 C438.6,154.2 441.8,154.3 445,154.1 C447.7,154 449.3,152.4 449.6,150.2 C450.1,146.5 450.6,142.8 451.2,139.1 C452.7,128.1 454.3,117.2 455.7,106.2 C455.9,104.4 456.5,103 457.7,101.6 C459.1,99.9 460.4,98.1 461.8,96.3 C471.2,84 480.5,71.7 489.9,59.4 C491.7,57 491.2,55.4 488.2,54.7 C487.9,54.6 487.5,54.6 487.2,54.6 C485.8,54.6 484.4,54.5 483,54.5 C482.2,54.4 481.4,54.4 480.6,54.5" id="path-1"></path>
    </defs>
    <g id="Page-1" stroke="none" stroke-width="1" fill="none" fill-rule="evenodd">
        <g id="logo-varsity">
            <path d="M103.9,1 C101.3,1 99.5,2.2 98.3,4.4 C97.7,5.6 97.1,6.8 96.4,8 C83.3,34 70.2,60 57.1,86.1 C50,100.2 42.9,114.4 35.8,128.5 C35.1,129.9 34.3,131.4 33.4,133.2 C29,110.8 24.6,88.9 20.2,66.6 L22,66.6 C29.9,66.6 37.9,66.6 45.8,66.6 C48.9,66.6 51.2,65.3 52.6,62.5 C53.3,61.2 53.9,59.8 54.7,58.4 C56.1,56.1 54.5,54.2 52.1,54.2 C42.2,54.3 32.3,54.3 22.4,54.3 C17.1,54.3 11.9,54.3 6.6,54.3 C5.5,54.3 4.3,54.4 3.2,54.7 C1.3,55.2 0.7,56.3 1.1,58.2 C2.8,66.6 4.4,74.9 6.1,83.3 C9,98 11.9,112.6 14.9,127.3 C16.3,134.3 17.6,141.3 19.1,148.3 C19.9,151.9 22.4,153.8 26,153.8 C27.1,153.8 28.3,153.8 29.4,153.8 C31.4,153.8 33.5,153.8 35.5,153.8 C40,153.9 43.1,151.9 45.1,147.9 C47,144.1 49,140.3 50.9,136.5 C62.5,113.9 74.1,91.3 85.7,68.7 C93.7,53.1 101.7,37.4 109.8,21.8 C112.7,16.2 115.5,10.6 118.4,5 C119.4,3.1 119,2 116.9,1.4 C115.8,1.1 114.7,0.9 113.6,0.9 C111.8,0.9 110,0.9 108.2,0.9 C106.7,0.9 105.2,0.9 103.7,0.9 C104,1 104,1 103.9,1" id="Path" fill="#FFFFFF"></path>
            <path d="M110,60.4 C106.4,67.5 102.7,74.6 99.1,81.7 C87.4,104.5 75.7,127.2 64,150 C55.2,167.2 46.3,184.4 37.5,201.7 C35.8,205.1 34,208.4 32.3,211.8 C31.5,213.4 31.9,214.4 33.7,215 C34.1,215.1 34.5,215.3 35,215.3 C38.9,215.4 42.8,215.4 46.8,215.6 C49.9,215.7 52,214.3 53.4,211.6 C64.9,188.8 76.4,166 87.9,143.1 C98.5,122 109.1,100.9 119.8,79.8 C120.5,78.4 121.2,77 122.1,75.3 C124.6,88 127,100.3 129.5,112.7 C128.9,112.7 128.4,112.8 128,112.8 C127.3,112.8 126.5,112.8 125.8,112.8 C124.5,112.8 123.1,112.8 121.8,112.8 C118.8,112.9 116.5,114.2 115.2,116.9 C114.5,118.3 113.8,119.6 113.2,121 C112,123.4 113,125 115.7,125 C120.7,125 125.7,125 130.8,125 C131.8,125 132.2,125.3 132.4,126.3 C133.9,134 135.4,141.7 137,149.4 C137.6,152.5 139.4,154 142.5,154.1 C144.9,154.1 147.4,154.2 149.8,154.1 C150.7,154.1 151.6,153.9 152.5,153.6 C154.2,153 154.7,152 154.4,150.3 C153.3,144.5 152.1,138.8 151,133 C148.6,120.9 146.2,108.7 143.8,96.6 C141.4,84.5 139,72.3 136.5,60.2 C135.7,56.5 133.2,54.6 129.4,54.5 C128.2,54.5 127,54.5 125.8,54.5 C123.8,54.5 121.9,54.5 119.9,54.5 C119.8,54.5 119.8,54.5 119.7,54.5 C115.1,54.4 112,56.4 110,60.4" id="Path" fill="#FFFFFF"></path>
            <path d="M194.9,102 C194.5,102 194,102 193.4,101.9 C195,90.1 196.7,78.4 198.3,66.8 C198.5,66.7 198.7,66.7 198.9,66.7 L199.2,66.7 C200.9,66.7 202.6,66.7 204.3,66.7 C208.6,66.7 212.9,66.6 217.2,66.8 C223.7,67 227.3,70.3 227.8,76.7 C228.3,83 227.3,89.1 224.1,94.6 C221.2,99.5 216.8,102 211,102 C208.9,102 206.8,102 204.6,102 C201.3,102 198.1,102 194.9,102 M151.5,54.4 C149.9,54.5 149,55.7 149.2,57.2 C149.4,58.3 149.6,59.3 149.9,60.4 C150.8,64.4 153.5,66.6 157.7,66.6 C164.9,66.6 172,66.6 179.2,66.6 L180.9,66.6 C180.8,67.3 180.8,67.9 180.7,68.4 C179.5,76.9 178.3,85.3 177.1,93.8 C175.8,103.5 174.4,113.1 173.1,122.8 C171.8,131.8 170.5,140.8 169.3,149.9 C169,152.1 170.2,153.8 172.4,153.9 C175.7,154 179,154.1 182.2,153.9 C184.7,153.8 186.4,152.2 186.7,150.2 C188.1,140 189.5,129.8 190.9,119.6 C191.1,117.8 191.4,116.1 191.7,114.3 C195.9,114.3 200,114.3 204,114.3 C204.3,114.3 204.8,114.7 205,115.1 C205.6,116.4 206.1,117.8 206.6,119.1 C210.8,129.5 215.1,139.9 219.3,150.3 C220.1,152.2 221.3,153.7 223.3,153.8 C227,154 230.8,154.1 234.5,153.8 C237.9,153.5 238.6,152.1 237.2,148.9 C233,138.8 228.7,128.6 224.5,118.5 C223.7,116.5 222.9,114.6 222.1,112.5 C222.7,112.3 223.1,112.1 223.6,112 C229.4,109.9 234.3,106.5 238,101.5 C244.2,93.1 246.5,83.7 245.2,73.4 C244.2,65.3 239.7,59.7 232,56.7 C227.4,54.9 222.6,54.3 217.6,54.3 C195.9,54.3 174.1,54.3 152.4,54.3 C152.2,54.3 152.1,54.3 151.9,54.3 C151.9,54.4 151.7,54.4 151.5,54.4" id="Shape" fill="#FFFFFF"></path>
            <path d="M285.3,54.8 C275.1,57.4 266.8,62.8 261.7,72.2 C257.4,80.1 257,88.2 262.4,95.9 C264.9,99.6 268.3,102.4 272,104.6 C277,107.6 282.2,110.4 287.2,113.3 C290,114.9 292.5,116.8 294.6,119.3 C296.1,121.1 297.1,123.1 297,125.5 C296.8,132.4 292.3,138.7 285.7,140.9 C277,143.8 268.8,142.5 261.3,137.2 C259.9,136.2 258.5,135.2 257,134.3 C255.1,133.2 253.3,133.5 251.6,134.8 C249.7,136.2 248.5,138.2 247.9,140.5 C247.5,142 247.7,143.4 248.7,144.4 C250,145.8 251.4,147.2 253.1,148.3 C260.3,152.8 268.1,154.9 276.6,154.9 C281.5,154.9 286.3,154.3 290.9,153 C300.6,150.1 308.3,144.7 312.3,135.1 C317.1,123.8 315.2,114.1 305.8,105.9 C301.1,101.8 295.7,99 290.2,96.1 C286.6,94.2 283.1,92.2 279.8,89.9 C277,88 276,85.1 276.2,81.8 C276.8,74.9 283,66.4 293.3,66.2 C298.6,66.1 303.3,67.9 307.9,70.2 C310,71.3 311.9,70.9 313.6,69.5 C315.3,68 316.4,66.1 317,63.9 C317.4,62.3 317.1,61 315.9,60 C314.7,59 313.3,58 311.9,57.4 C306.3,55.1 300.6,53.7 294.8,53.7 C291.7,53.5 288.5,53.9 285.3,54.8" id="Path" fill="#FFFFFF"></path>
            <path d="M370.6,54.4 C370,54.4 369.5,54.4 368.9,54.5 C366,54.8 364.5,56.1 364,59 C363.8,60.2 363.6,61.5 363.5,62.8 C363.3,64.3 364,65.7 365.5,66.2 C366.3,66.5 367.3,66.6 368.2,66.6 C375,66.6 381.8,66.6 388.6,66.6 L390.3,66.6 C389.5,72.3 388.7,77.7 388,83.2 C386.5,94.2 385,105.1 383.5,116.1 C381.9,127.4 380.4,138.6 378.8,149.9 C378.5,152.2 379.7,153.8 382,153.9 C385.2,154 388.5,154.1 391.7,153.9 C394.5,153.8 395.9,152.2 396.3,149.5 C397.1,143.8 397.9,138.1 398.7,132.4 C400.2,121.4 401.7,110.4 403.3,99.4 C404.7,89 406.2,78.7 407.6,68.3 C407.8,66.9 408.3,66.6 409.5,66.7 C422.9,66.7 436.3,66.7 449.7,66.7 C452.1,66.7 454.2,65.9 455.7,64 C457.2,62.2 458.5,60.2 459.9,58.3 C460.9,56.9 460.3,55.1 458.9,54.6 C458.3,54.4 457.6,54.4 457,54.4 C439.3,54.4 421.5,54.4 403.8,54.4 C392.7,54.4 381.6,54.4 370.6,54.4" id="Path" fill="#FFFFFF"></path>
            <g id="Path">
                <use fill="#D8D8D8" xlink:href="#path-1"></use>
                <use fill="#FFFFFF" xlink:href="#path-1"></use>
            </g>
            <path d="M342.5,54.5 C339.7,54.7 338.3,56.1 337.9,58.8 C336.9,65.7 336,72.6 335,79.5 C333.4,91.1 331.7,102.6 330.1,114.2 C328.4,126 326.8,137.8 325.2,149.6 C324.8,152.1 326.1,153.8 328.6,154 C330.1,154.1 331.7,154 333.2,154 L333.2,154 C334.5,154 335.7,154 337,154 C340.6,153.9 342.1,152.6 342.6,149 C342.7,148.7 342.7,148.3 342.8,148 C344.1,138.3 345.5,128.6 346.8,118.9 C348.2,109.2 349.5,99.5 350.9,89.8 C352.3,79.5 353.8,69.2 355.2,58.8 C355.5,56.4 354.4,54.7 352,54.5 C350.4,54.4 348.7,54.4 347.1,54.4 C345.6,54.4 344,54.4 342.5,54.5" id="Path" fill="#FFFFFF"></path>
        </g>
    </g>
</svg>