<?xml version="1.0" encoding="UTF-8"?>
<svg width="105px" height="36px" viewBox="0 0 105 36" version="1.1" xmlns="http://www.w3.org/2000/svg" xmlns:xlink="http://www.w3.org/1999/xlink">
    <!-- Generator: Sketch 47.1 (45422) - http://www.bohemiancoding.com/sketch -->
    <title>logo-takeda</title>
    <desc>Created with Sketch.</desc>
    <defs></defs>
    <g id="Page-1" stroke="none" stroke-width="1" fill="none" fill-rule="evenodd">
        <g id="Group-14" transform="translate(1.000000, -1.000000)">
            <polygon id="Path-6" fill="#FFFFFF" points="10.7853539 23.1826137 12.5598053 31.2937528 19.1263674 35.2889989 83.6475821 35.2889989 90.3779855 31.2937528 92.1494579 20.5268946 81.3999768 10.7341476 65.4323974 2.90600712 52.4085006 0.878346461 37.3897115 3.76344344 21.7915198 11.7320902 12.5598053 18.7236469"></polygon>
            <path d="M10.2817484,25.0072789 C9.12581217,26.6468707 8.1523922,28.6017687 7.11813349,30.367483 L0,25.5117687 C13.6278795,9.11585034 32.3053751,0.980952381 51.2870644,0.980952381 C70.5729474,0.980952381 90.5888955,10.3140136 103,25.3856463 L95.9427053,30.367483 C94.6650916,28.3495238 93.9350266,26.2054422 92.5965741,24.3766667 C92.5965741,25.0703401 92.9616066,34.7187075 83.227407,36.2952381 L19.772593,36.2321769 C10.5251034,35.1601361 10.4642646,25.1334014 10.2817484,25.0072789 L10.2817484,25.0072789 Z M91.5014767,24.6289116 C91.5014767,24.6289116 91.5014767,22.5478912 89.980508,21.1605442 C81.0980508,10.1878912 68.0785588,2.17911565 51.5304194,2.17911565 C36.0165387,2.17911565 23.0578854,8.86360544 13.0803308,21.6019728 C11.5593621,23.1154422 11.8027171,25.2595238 11.8027171,25.2595238 C12.0460721,28.2234014 13.6278795,33.5836054 20.6851742,34.2772789 L82.6190195,34.2772789 C90.1021855,33.5836054 91.3189604,27.7189116 91.5014767,24.6289116 Z" id="Shape" fill="#FFFFFF" fill-rule="nonzero"></path>
            <path d="M10.2817484,25.0072789 C9.12581217,26.6468707 8.1523922,28.6017687 7.11813349,30.367483 L0,25.5117687 C13.6278795,9.11585034 32.3053751,0.980952381 51.2870644,0.980952381 C70.5729474,0.980952381 90.5888955,10.3140136 103,25.3856463 L95.9427053,30.367483 C94.6650916,28.3495238 93.9350266,26.2054422 92.5965741,24.3766667 C92.5965741,25.0703401 92.9616066,34.7187075 83.227407,36.2952381 L19.772593,36.2321769 C10.5251034,35.1601361 10.4642646,25.1334014 10.2817484,25.0072789 L10.2817484,25.0072789 Z M91.5014767,24.6289116 C91.5014767,24.6289116 91.5014767,22.5478912 89.980508,21.1605442 C81.0980508,10.1878912 68.0785588,2.17911565 51.5304194,2.17911565 C36.0165387,2.17911565 23.0578854,8.86360544 13.0803308,21.6019728 C11.5593621,23.1154422 11.8027171,25.2595238 11.8027171,25.2595238 C12.0460721,28.2234014 13.6278795,33.5836054 20.6851742,34.2772789 L82.6190195,34.2772789 C90.1021855,33.5836054 91.3189604,27.7189116 91.5014767,24.6289116 Z" id="Shape" stroke="#FFFFFF" stroke-width="2.0354"></path>
            <path d="M10.2817484,25.0072789 C9.12581217,26.6468707 8.1523922,28.6017687 7.11813349,30.367483 L0,25.5117687 C13.6278795,9.11585034 32.3053751,0.980952381 51.2870644,0.980952381 C70.5729474,0.980952381 90.5888955,10.3140136 103,25.3856463 L95.9427053,30.367483 C94.6650916,28.3495238 93.9350266,26.2054422 92.5965741,24.3766667 C92.5965741,25.0703401 92.9616066,34.7187075 83.227407,36.2952381 L19.772593,36.2321769 C10.5251034,35.1601361 10.4642646,25.1334014 10.2817484,25.0072789 L10.2817484,25.0072789 Z M91.5014767,24.6289116 C91.5014767,24.6289116 91.5014767,22.5478912 89.980508,21.1605442 C81.0980508,10.1878912 68.0785588,2.17911565 51.5304194,2.17911565 C36.0165387,2.17911565 23.0578854,8.86360544 13.0803308,21.6019728 C11.5593621,23.1154422 11.8027171,25.2595238 11.8027171,25.2595238 C12.0460721,28.2234014 13.6278795,33.5836054 20.6851742,34.2772789 L82.6190195,34.2772789 C90.1021855,33.5836054 91.3189604,27.7189116 91.5014767,24.6289116 Z" id="Shape" fill="#F50000" fill-rule="nonzero"></path>
            <path d="M40.1739278,25.6167976 C40.7757606,24.7457187 41.1368603,24.0612996 42.1599762,22.0080422 L44.627491,16.2838095 L47.5162887,16.2838095 L44.9284074,22.132482 L44.4469411,23.1902207 L48.7801378,20.4525442 L51.7291188,20.4525442 L46.7940893,23.8746398 L47.0950057,24.9323785 C47.0950057,24.9323785 47.6366553,26.861196 47.7570219,26.9234159 C47.7570219,26.9234159 47.9375718,27.8567147 49.4421539,27.1722956 C49.4421539,27.1722956 50.8865528,26.6745362 51.1874692,26.4256566 C51.1874692,26.4256566 49.8634369,22.941341 55.5206659,20.3903243 C55.5206659,20.3903243 59.0714798,19.1459259 60.0945957,21.0125235 C60.0945957,21.0125235 60.6964286,22.132482 59.6131294,23.3146605 C59.6131294,23.3146605 59.2520297,23.9368597 57.5067144,24.8701585 C56.4234152,25.4301378 55.8215823,25.7412374 54.9790163,26.2389968 C54.9790163,26.2389968 54.49755,26.4878765 54.3771835,26.5500964 C54.4373667,26.6745362 54.7984665,27.1100757 55.1595662,27.2967354 C55.1595662,27.2967354 56.5437818,28.2922542 59.3723963,26.861196 C59.3723963,26.861196 61.2380782,25.7412374 61.839911,24.6834988 C62.5621105,22.8169012 64.7888921,20.4525442 67.1360403,20.3903243 C68.2193394,20.3281044 68.8211723,20.2036645 69.8442882,21.4480629 L69.9044715,21.4480629 C70.024838,21.0125235 70.3257545,20.7014239 70.5063043,20.2658844 L72.3719862,16.4082494 L74.9598676,16.4082494 L70.3859378,26.1767769 C70.3859378,26.1767769 69.603555,27.607835 71.4090536,27.0478558 C71.4090536,27.0478558 72.4321695,26.4878765 72.7330859,25.7412374 C72.9136358,25.4301378 73.0340024,25.2434781 73.0941857,25.1812581 C74.0571183,22.8169012 75.9228001,20.7636438 78.5106815,20.639204 C78.9319645,20.639204 80.4967299,20.4525442 81.0383795,21.6969426 L81.4596625,21.0747434 L81.5800291,20.7014239 L84.0475439,20.7014239 L81.339296,26.5500964 C81.339296,26.5500964 81.2189294,27.2345155 81.5800291,27.4211753 C81.5800291,27.4211753 82.181862,27.9811546 84.288277,26.114557 C84.288277,26.114557 84.5891935,26.4256566 84.8901099,27.0478558 C84.8901099,27.0478558 84.1679104,27.7322749 83.7466274,27.9811546 C82.181862,29.2877729 80.7374631,29.225553 80.7374631,29.225553 C78.8717812,29.3499928 78.5106815,27.7322749 78.5106815,27.7322749 L78.5106815,27.7944948 C77.7282988,28.7277936 76.4042664,29.1633331 75.3209673,29.1633331 C73.9367517,29.1633331 73.0340024,27.9811546 72.8534525,27.1100757 C71.5896035,28.6033538 69.4831885,28.9766733 69.4831885,28.9766733 C67.3767734,29.1011131 67.1360403,27.9189346 67.1360403,27.9189346 L67.0156737,27.8567147 C66.0527411,28.6655737 65.6314581,28.7277936 64.6685255,28.8522335 C62.8630269,29.1633331 61.5991779,27.7322749 61.4788113,26.6745362 C60.2751456,27.7944948 57.9279974,28.6033538 57.9279974,28.6033538 C56.0623155,29.3499928 54.076267,28.9766733 54.076267,28.9766733 C52.812418,28.7900135 51.6087523,27.5456151 51.6087523,27.5456151 C49.8032536,28.2922542 48.2986715,28.7900135 48.2986715,28.7900135 C46.6135394,29.4122127 46.1320732,29.0388932 46.1320732,29.0388932 C45.6506069,29.0388932 45.4098737,28.3544741 45.4098737,28.3544741 L44.5673077,25.1190382 L42.9423589,26.052337 L41.6785099,28.8522335 L38.8498954,28.8522335 L39.5119116,27.4833952 C37.5258631,28.8522335 36.1416475,28.9144534 36.1416475,28.9144534 C34.0352325,29.1633331 34.2157824,27.5456151 34.2157824,27.5456151 L33.9148659,27.7322749 C32.5306503,28.7277936 31.9288175,28.9766733 30.785335,28.9766733 C27.4150709,28.9766733 28.257637,25.8034574 28.67892,24.6212789 C29.4011194,22.8169012 31.2668013,20.8258637 33.9148659,20.639204 C34.3963322,20.576984 35.5999979,20.576984 36.5027473,21.385843 L36.6832971,21.1369633 L36.9240303,20.576984 L39.5720949,20.576984 L36.7434804,26.7367562 C36.7434804,26.7367562 36.5629305,27.2345155 37.0443968,27.1722956 C37.4656798,27.2345155 38.970262,26.2389968 40.1739278,25.6167976 L40.1739278,25.6167976 Z M23.7438904,28.8522335 L28.5585534,18.4615067 L33.1926665,18.4615067 L34.1555991,16.2838095 L21.336559,16.2838095 L20.3736264,18.4615067 L25.1882893,18.4615067 L20.3736264,28.8522335 L23.7438904,28.8522335 Z M65.812008,27.0478558 C66.4740241,26.9856358 67.918423,25.8656773 68.3998893,24.496839 C68.9415389,23.1280008 68.7008057,21.9458223 67.7378731,21.9458223 C66.7749405,21.9458223 65.0898085,23.5013203 64.6083422,24.9323785 C63.8861428,27.4211753 65.4509082,27.0478558 65.812008,27.0478558 Z M33.0722999,26.861196 C34.2157824,26.4878765 34.9981651,24.5590589 35.3592648,23.8746398 C36.021281,22.5680215 35.4194481,21.7591625 34.0954158,22.0080422 C33.0722999,22.194702 31.8686342,23.6257601 31.5677177,24.6212789 C30.4844186,28.1055944 33.3732163,26.7367562 33.0722999,26.861196 Z M55.4002993,24.5590589 C57.9279974,23.1280008 57.6872642,22.132482 57.6872642,22.132482 C57.6872642,21.0125235 56.7243316,21.4480629 56.7243316,21.4480629 C54.8586497,22.132482 54.4373667,23.7502 54.4373667,23.7502 C54.3170002,24.1235195 54.1364503,25.1812581 54.1364503,25.1812581 C54.5577333,25.0568183 55.4002993,24.5590589 55.4002993,24.5590589 Z M77.6681155,26.9234159 C78.6310481,26.6745362 79.6541639,24.9945984 79.8347138,24.2479593 C80.3763634,22.6302414 80.0152637,21.8213824 78.6310481,22.0702621 C77.6079322,22.2569219 76.4644497,23.7502 76.10335,24.6834988 C75.0200508,28.1678143 77.9088486,26.7989761 77.6681155,26.9234159 Z" id="Shape" fill="#F50000" fill-rule="nonzero"></path>
        </g>
    </g>
</svg>