<?xml version="1.0" encoding="UTF-8"?>
<svg width="167px" height="171px" viewBox="0 0 167 171" version="1.1" xmlns="http://www.w3.org/2000/svg" xmlns:xlink="http://www.w3.org/1999/xlink">
    <!-- Generator: Sketch 64 (93537) - https://sketch.com -->
    <title>Slice</title>
    <desc>Created with Sketch.</desc>
    <g id="Page-1" stroke="none" stroke-width="1" fill="none" fill-rule="evenodd">
        <g id="Vector-Smart-Object-2-Copy" fill="#661861">
            <path d="M140.8,68.8 C137.1,72.3 130.5,78.2 122.2,86.7 C94.7,115.1 73.8,143.5 58.9,170.9 L73.9,170.9 C81.1,157 89,143.2 96.6,132.1 C112.7,108.4 123.7,96.5 128.8,91.4 L128.8,91.4 C129.8,90.4 131.4,90.6 132.1,91.8 L132.2,92 C132.8,93.1 134.5,93 134.9,91.7 L142.4,69.8 C142.6,69.1 142.1,68.5 141.5,68.5 C141.3,68.5 141,68.6 140.8,68.8" id="Path" fill-rule="nonzero"></path>
            <path d="M40.4,170.9 L56.6,170.9 C82.4,122.8 122.2,78.7 166.4,41.9 L166.4,29.8 C105,78.5 64.1,123.6 40.4,170.9" id="Path"></path>
            <path d="M166.4,0 C100.2,50.9 41.7,114.2 15.2,170.9 L37.9,170.9 C61.7,122.5 103.4,76.6 166.5,26.8 L166.5,0 L166.4,0 Z" id="Path"></path>
            <path d="M126.5,25.8 C126.4,25.8 126.2,25.8 126.1,25.9 L86.1,38.3 C85,38.6 85,40.2 86.1,40.5 L89.9,41.8 C91.2,42.3 91.6,44 90.6,45 C89.6,46 88.5,47.1 87.9,47.9 C56.7,79.6 20.9,120.7 0,170.9 L12.5,170.9 C31.3,131 65.6,86.2 101.1,52.3 C101.2,52.2 101.3,52.1 101.4,52.1 C104,49.7 113.2,40.7 115.4,38.7 C116.9,37.3 123,31.9 127.4,28.1 C128.2,27.2 127.6,25.8 126.5,25.8 L126.5,25.8 Z" id="Path"></path>
        </g>
    </g>
</svg>
