<?xml version="1.0" encoding="utf-8"?>
<!-- Generator: Adobe Illustrator 16.0.0, SVG Export Plug-In . SVG Version: 6.00 Build 0)  -->
<!DOCTYPE svg PUBLIC "-//W3C//DTD SVG 1.1//EN" "http://www.w3.org/Graphics/SVG/1.1/DTD/svg11.dtd">
<svg version="1.1" id="Layer_2" xmlns="http://www.w3.org/2000/svg" xmlns:xlink="http://www.w3.org/1999/xlink" x="0px" y="0px"
	 width="157px" height="57px" viewBox="0 0 157 57" enable-background="new 0 0 157 57" xml:space="preserve">
<g>
	<g>
		<defs>
			<path id="SVGID_1_" d="M43.798,0.475C43.564,0.609,20.624,13.786,2.451,19.068L1.05,19.477c-0.443,0.129-0.796,0.579-0.806,1.02
				c-0.006,0.437,0.337,0.706,0.779,0.608c0.579-0.135,1.375-0.286,2.383-0.477C9.611,19.446,21.924,17.1,33.503,10.12
				c-5.101,6.971-10.78,16.62-13.387,25.557c-1.009-1.551-2.892-3.85-5.999-7.383c-0.2-0.226-0.386-0.441-0.555-0.634
				c3.59-3.718,8.179-7.567,10.06-9.111c0.387-0.31,0.768-0.617,1.133-0.918c0.393-0.32,0.538-0.849,0.329-1.182
				c-0.212-0.333-0.7-0.347-1.098-0.033c0,0-0.422,0.336-1.135,0.919c-5.523,4.418-12.959,9.62-13.033,9.677
				c-0.289,0.196-0.479,0.524-0.496,0.837c-0.017,0.31,0.143,0.558,0.418,0.634l0.077,0.022
				c2.746,2.374,11.207,13.708,11.292,13.828c0.089,0.114,0.213,0.188,0.358,0.214c0,0,0.004,0,0.006,0
				c0.409,0.072,0.894-0.241,1.081-0.701c0.055-0.132,0.076-0.26,0.074-0.384C23.5,31.21,44.433,1.851,44.646,1.553
				c0.241-0.337,0.272-0.743,0.076-0.995c-0.112-0.138-0.279-0.212-0.468-0.212C44.106,0.346,43.948,0.389,43.798,0.475"/>
		</defs>
		<clipPath id="SVGID_2_">
			<use xlink:href="#SVGID_1_"  overflow="visible"/>
		</clipPath>
		
			<linearGradient id="SVGID_3_" gradientUnits="userSpaceOnUse" x1="-241.5449" y1="416.6416" x2="-239.6137" y2="416.6416" gradientTransform="matrix(22.8276 -14.5624 -8.3303 -20.3541 8995.7891 4991.5938)">
			<stop  offset="0" style="stop-color:#99258E"/>
			<stop  offset="0.2718" style="stop-color:#B52F6B"/>
			<stop  offset="0.5725" style="stop-color:#CF394B"/>
			<stop  offset="0.826" style="stop-color:#DE3F38"/>
			<stop  offset="1" style="stop-color:#E44131"/>
		</linearGradient>
		<polygon clip-path="url(#SVGID_2_)" fill="url(#SVGID_3_)" points="-13.48,9.099 35.667,-22.255 58.637,33.865 9.489,65.22 		"/>
	</g>
	<path fill="#99258E" d="M53.707,35.631H40.648c-1.022,0-1.291-0.154-1.122-1.111l4.128-23.473c0.161-0.92,0.602-0.994,1.495-0.994
		h13.058c1.405,0,0.869,1.11,0.699,2.066c-0.142,0.805-0.259,1.225-1.279,1.225c-3.404,0-6.8-0.037-10.182-0.152l-1.354,7.697
		c3.118-0.075,6.238-0.153,9.345-0.153c1.273,0,0.858,0.917,0.709,1.76c-0.14,0.807-0.256,1.225-1.279,1.225
		c-3.104,0-6.153-0.076-9.243-0.155l-1.57,8.926c3.424-0.117,6.876-0.154,10.278-0.154c0.978,0,0.939,0.46,0.806,1.226l-0.19,1.071
		C54.812,35.401,54.515,35.631,53.707,35.631"/>
	<path fill="#231F20" d="M153.848,20.988c-0.263,0-0.504-0.048-0.731-0.146c-0.226-0.098-0.423-0.233-0.591-0.402
		c-0.17-0.167-0.304-0.367-0.402-0.593c-0.097-0.226-0.149-0.468-0.149-0.728c0-0.255,0.053-0.497,0.149-0.725
		c0.099-0.225,0.232-0.422,0.402-0.588c0.168-0.169,0.365-0.301,0.591-0.4c0.228-0.099,0.469-0.147,0.731-0.147
		c0.254,0,0.496,0.048,0.721,0.147c0.227,0.099,0.426,0.231,0.594,0.4c0.171,0.166,0.302,0.363,0.4,0.588
		c0.096,0.229,0.146,0.47,0.146,0.725c0,0.259-0.05,0.502-0.146,0.728c-0.099,0.227-0.229,0.426-0.4,0.593
		c-0.168,0.169-0.367,0.304-0.594,0.402C154.344,20.94,154.102,20.988,153.848,20.988 M153.848,20.744
		c0.225,0,0.435-0.042,0.624-0.125c0.194-0.084,0.359-0.2,0.495-0.346c0.139-0.145,0.246-0.317,0.325-0.514
		c0.078-0.195,0.119-0.409,0.119-0.639c0-0.226-0.041-0.438-0.119-0.636c-0.079-0.196-0.187-0.366-0.325-0.511
		c-0.136-0.143-0.301-0.258-0.495-0.343c-0.189-0.083-0.399-0.125-0.624-0.125c-0.229,0-0.438,0.042-0.632,0.125
		c-0.194,0.085-0.361,0.2-0.5,0.343c-0.138,0.145-0.248,0.315-0.328,0.511c-0.077,0.198-0.117,0.411-0.117,0.636
		c0,0.23,0.04,0.444,0.117,0.639c0.08,0.197,0.19,0.369,0.328,0.514c0.139,0.146,0.306,0.262,0.5,0.346
		C153.41,20.701,153.619,20.744,153.848,20.744 M154.775,20.162h-0.306l-0.594-0.96h-0.468v0.96h-0.257v-2.083h0.911
		c0.275,0,0.468,0.051,0.575,0.149c0.11,0.098,0.162,0.232,0.162,0.403c0,0.103-0.017,0.188-0.048,0.262
		c-0.033,0.071-0.078,0.129-0.138,0.173c-0.06,0.044-0.131,0.077-0.211,0.098c-0.081,0.022-0.167,0.035-0.257,0.037L154.775,20.162z
		 M153.797,19h0.235c0.087,0,0.166-0.01,0.24-0.028c0.073-0.022,0.133-0.057,0.182-0.109c0.048-0.055,0.07-0.131,0.07-0.238
		c0-0.081-0.015-0.147-0.047-0.193c-0.029-0.048-0.072-0.084-0.119-0.11c-0.05-0.022-0.106-0.04-0.168-0.048
		c-0.062-0.007-0.126-0.011-0.188-0.011h-0.595V19H153.797z"/>
	<path fill="#99258E" d="M72.68,35.631h-1.488c-1.19,0-1.496,0.038-1.292-1.111l1.809-10.3c0.117-0.653,0.567-2.987,0.196-3.522
		c-0.381-0.498-1.131-0.573-1.814-0.573c-2.465,0-4.349,1.263-6.405,2.565L61.604,34.52c-0.123,0.689-0.281,1.111-1.132,1.111
		h-1.488c-1.189,0-1.496,0.038-1.296-1.111l2.757-15.662c0.154-0.88,0.352-1.032,1.286-1.032h1.874c1.063,0,0.761,0.996,0.646,1.647
		c2.376-1.418,4.101-2.261,6.864-2.261c3.657,0,5.454,1.646,4.874,4.939L73.812,34.52C73.691,35.209,73.531,35.631,72.68,35.631"/>
	<path fill="#99258E" d="M88.637,20.621h-4.424l-1.71,9.725c-0.205,1.149-0.726,2.913,1.103,2.913c1.235,0,2.569-0.578,3.59-0.578
		c0.425,0,0.397,0.154,0.338,0.499l-0.255,1.455c-0.168,0.958-0.239,1.109-1.314,1.186c-1.211,0.118-2.461,0.193-3.652,0.193
		c-4.55,0-4.382-1.914-3.742-5.551l1.727-9.842c-2.336,0-2.193,0.153-1.831-1.916c0.197-1.111,1.518-0.88,2.325-0.88l0.633-3.6
		c0.149-0.842,0.353-1.033,1.287-1.033h1.871c0.683,0,0.851,0.499,0.756,1.033l-0.634,3.6h4.425c1.317,0,1.118,0.42,0.942,1.417
		C89.887,20.275,89.87,20.621,88.637,20.621"/>
	<path fill="#99258E" d="M108.093,19.356L95.51,41.581c-0.369,0.65-0.64,0.726-1.405,0.726h-2.254c-0.34,0-0.687,0.04-0.621-0.344
		c0.042-0.229,0.261-0.5,0.378-0.689l3.979-6.178c-0.375-1.496-4.264-16.391-4.178-16.888c0.063-0.345,0.533-0.383,0.833-0.383
		h1.999c0.723,0,1.285-0.037,1.419,0.652l2.354,12.482l6.375-12.063c0.438-0.804,0.7-1.071,1.68-1.071h1.955
		c0.34,0,0.71,0.077,0.641,0.459C108.626,18.516,108.22,19.126,108.093,19.356"/>
	<path fill="#99258E" d="M117.164,34.635c-0.374,0.691-0.643,0.996-1.493,0.996h-1.957c-0.935,0-0.98-0.229-1.144-0.996
		l-3.431-16.042c-0.017-0.153-0.036-0.269-0.013-0.423c0.063-0.343,0.445-0.343,0.743-0.343h2.426c0.85,0,0.95,0.152,1.077,0.879
		l2.124,12.599l6.59-12.56c0.385-0.728,0.544-0.918,1.396-0.918h2.296c0.3,0,0.677,0.038,0.615,0.381
		C126.292,18.783,118.031,33.104,117.164,34.635"/>
	<path fill="#99258E" d="M127.925,35.631h-1.661c-1.148,0-1.447,0-1.25-1.111l2.754-15.661c0.149-0.842,0.351-1.033,1.287-1.033
		h2.001c0.681,0,0.847,0.496,0.755,1.033l-2.758,15.661C128.932,35.209,128.773,35.631,127.925,35.631 M131.566,14.914h-1.66
		c-1.146,0-1.445,0-1.25-1.11l0.243-1.377c0.149-0.844,0.352-1.034,1.288-1.034h1.998c0.682,0,0.85,0.497,0.754,1.034l-0.241,1.377
		C132.578,14.493,132.418,14.914,131.566,14.914"/>
	<path fill="#99258E" d="M140.427,36.13c-6.891,0-8.267-3.792-7.278-9.421c0.999-5.668,3.666-9.458,10.601-9.458
		c6.89,0,8.251,3.868,7.269,9.458C150.036,32.3,147.275,36.13,140.427,36.13 M147.078,21.769c-0.659-1.568-2.013-1.608-3.842-1.608
		s-3.198,0.04-4.411,1.608c-1,1.341-1.456,3.448-1.719,4.94c-0.262,1.494-0.549,3.599-0.017,4.939
		c0.616,1.568,2.063,1.568,3.849,1.568c1.788,0,3.24-0.035,4.402-1.568c0.994-1.303,1.463-3.483,1.72-4.939
		C147.323,25.217,147.611,23.11,147.078,21.769"/>
	<polygon fill="#899D97" points="46.219,46.058 41.295,55.614 40.731,55.614 40.101,46.058 38.726,46.058 39.479,56.883 
		42.058,56.883 47.668,46.058 	"/>
	<path fill="#899D97" d="M52.981,45.878c-2.406,0-4.397,1.661-4.953,4.138l-0.372,1.652c-0.496,2.217-0.418,3.581,0.25,4.421
		c0.514,0.65,1.37,0.967,2.615,0.979h0.002c0.958,0,3.585-0.177,3.695-0.185l0.23-0.016l0.288-1.287l-0.417,0.034
		c-0.021,0.004-2.249,0.181-3.629,0.181c-0.798,0-1.336-0.185-1.642-0.565c-0.43-0.538-0.474-1.554-0.129-3.186h6.938l0.425-1.893
		c0.31-1.38,0.165-2.452-0.425-3.191C55.285,46.242,54.314,45.878,52.981,45.878 M54.747,47.806c0.371,0.466,0.446,1.211,0.222,2.21
		l-0.171,0.762h-5.595l0.142-0.626c0.415-1.855,1.752-3.005,3.489-3.005C53.752,47.146,54.395,47.368,54.747,47.806"/>
	<path fill="#899D97" d="M65.848,46.209c-0.71-0.094-2.558-0.331-3.414-0.331c-1.952,0-3.75,1.697-4.276,4.036l-0.775,3.447
		c-0.25,1.121-0.096,2.068,0.447,2.748c0.495,0.617,1.286,0.958,2.229,0.958c0.957,0,2.698-0.706,3.598-1.098l-0.204,0.913h1.347
		l3.436-15.312H66.89L65.848,46.209z M58.698,53.498l0.761-3.388c0.388-1.716,1.574-2.964,2.827-2.964
		c0.745,0,2.535,0.234,3.274,0.339l-1.584,7.056c-0.891,0.402-2.952,1.254-3.771,1.254c-0.515,0-0.952-0.19-1.234-0.538
		C58.637,54.833,58.539,54.211,58.698,53.498"/>
	<path fill="#899D97" d="M74.853,45.938h-1.307c-2.139,0-3.934,1.595-4.467,3.976l-0.68,3.022c-0.282,1.262-0.118,2.324,0.479,3.067
		c0.515,0.645,1.34,1,2.317,1h1.311c2.137,0,3.93-1.581,4.457-3.934l0.677-3.024c0.289-1.286,0.125-2.365-0.475-3.114
		C76.646,46.281,75.846,45.938,74.853,45.938 M72.653,55.735h-1.31c-0.563,0-1.02-0.198-1.323-0.579
		c-0.389-0.486-0.496-1.226-0.304-2.086l0.679-3.021c0.308-1.38,1.468-2.844,3.003-2.844h1.307c0.576,0,1.021,0.191,1.321,0.565
		c0.387,0.486,0.496,1.266,0.298,2.143l-0.676,3.022C75.283,54.558,74.025,55.735,72.653,55.735"/>
	<polygon fill="#899D97" points="78.825,56.883 80.17,56.883 83.607,41.569 82.261,41.569 	"/>
	<polygon fill="#899D97" points="83.705,56.883 85.049,56.883 87.479,46.06 86.135,46.06 	"/>
	<polygon fill="#899D97" points="88.351,42.183 87.005,42.183 86.614,43.919 87.96,43.919 	"/>
	<polygon fill="#899D97" points="89.789,47.33 95.887,47.33 87.946,55.731 87.89,55.792 87.646,56.883 95.5,56.883 95.791,55.592 
		89.751,55.592 97.62,47.254 97.678,47.192 97.93,46.06 90.074,46.06 	"/>
	<path fill="#899D97" d="M105.14,54.792c-0.912,0.325-2.957,1.006-3.653,1.006c-0.512,0-0.95-0.195-1.234-0.551
		c-0.335-0.419-0.436-1.032-0.279-1.726l1.673-7.462h-1.344l-1.646,7.326c-0.312,1.388,0.074,2.242,0.451,2.711
		c0.497,0.628,1.292,0.971,2.231,0.971c0.823,0,2.597-0.57,3.487-0.874l-0.155,0.689h1.344l2.432-10.823H107.1L105.14,54.792z"/>
	<path fill="#899D97" d="M122.514,45.878c-0.994,0-3.101,0.843-3.85,1.156c-0.419-0.667-1.334-1.156-2.233-1.156
		c-0.85,0-2.53,0.616-3.403,0.962l0.176-0.782h-1.349l-2.428,10.825h1.348l1.938-8.636c0.879-0.355,2.861-1.101,3.571-1.101
		c0.455,0,0.821,0.157,1.063,0.457c0.328,0.413,0.417,1.066,0.242,1.841l-1.668,7.438h1.343l1.642-7.304
		c0.133-0.604,0.162-1.012,0.137-1.38c0.873-0.358,2.696-1.053,3.326-1.053c0.506,0,0.939,0.195,1.222,0.547
		c0.343,0.429,0.443,1.05,0.285,1.751l-1.67,7.438h1.346l1.642-7.304c0.313-1.4-0.076-2.261-0.455-2.735
		C124.237,46.221,123.445,45.878,122.514,45.878"/>
	<path fill="#899D97" d="M135.761,49.15c0.214-0.953,0.065-1.807-0.418-2.413c-0.436-0.544-1.12-0.842-1.931-0.842
		c-1.465,0-4.197,0.185-4.228,0.187l-0.229,0.015l-0.286,1.28l0.409-0.025c0.028-0.002,2.803-0.188,4.186-0.188
		c0.428,0,0.752,0.134,0.964,0.399c0.273,0.342,0.344,0.887,0.198,1.531l-0.254,1.129l-4.226,0.349
		c-1.589,0.13-2.915,1.368-3.3,3.077c-0.229,1.019-0.066,1.969,0.445,2.61c0.424,0.526,1.054,0.808,1.827,0.808
		c0.725,0,3.956-0.374,4.413-0.427l2.06,0.408l0.465-1.192l-1.531-0.317L135.761,49.15z M133.887,51.507l-0.881,3.93
		c-0.777,0.084-3.382,0.361-3.919,0.361c-0.361,0-0.645-0.127-0.843-0.374c-0.298-0.37-0.385-0.991-0.234-1.662
		c0.195-0.875,0.813-1.848,1.949-1.943L133.887,51.507z"/>
	<path fill="#899D97" d="M146.949,46.844c-0.5-0.623-1.288-0.966-2.224-0.966c-0.955,0-2.66,0.475-3.514,0.731l1.134-5.038h-1.35
		l-3.416,15.221l0.353,0.03c0.138,0.007,3.333,0.264,4.375,0.264c2.214,0,3.899-2.184,4.36-4.241l0.735-3.266
		C147.717,48.181,147.33,47.318,146.949,46.844 M146.088,49.442l-0.734,3.267c-0.383,1.713-1.684,3.109-2.899,3.109
		c-0.76,0-2.517-0.12-3.273-0.178l1.723-7.666c0.614-0.188,2.751-0.828,3.675-0.828c0.508,0,0.942,0.195,1.227,0.547
		C146.144,48.12,146.246,48.743,146.088,49.442"/>
</g>
<g>
	<g>
		<defs>
			<path id="SVGID_4_" d="M43.798,0.475C43.564,0.609,20.624,13.786,2.451,19.068L1.05,19.477c-0.443,0.129-0.796,0.579-0.806,1.02
				c-0.006,0.437,0.337,0.706,0.779,0.608c0.579-0.135,1.375-0.286,2.383-0.477C9.611,19.446,21.924,17.1,33.503,10.12
				c-5.101,6.971-10.78,16.62-13.387,25.557c-1.009-1.551-2.892-3.85-5.999-7.383c-0.2-0.226-0.386-0.441-0.555-0.634
				c3.59-3.718,8.179-7.567,10.06-9.111c0.387-0.31,0.768-0.617,1.133-0.918c0.393-0.32,0.538-0.849,0.329-1.182
				c-0.212-0.333-0.7-0.347-1.098-0.033c0,0-0.422,0.336-1.135,0.919c-5.523,4.418-12.959,9.62-13.033,9.677
				c-0.289,0.196-0.479,0.524-0.496,0.837c-0.017,0.31,0.143,0.558,0.418,0.634l0.077,0.022
				c2.746,2.374,11.207,13.708,11.292,13.828c0.089,0.114,0.213,0.188,0.358,0.214c0,0,0.004,0,0.006,0
				c0.409,0.072,0.894-0.241,1.081-0.701c0.055-0.132,0.076-0.26,0.074-0.384C23.5,31.21,44.433,1.851,44.646,1.553
				c0.241-0.337,0.272-0.743,0.076-0.995c-0.112-0.138-0.279-0.212-0.468-0.212C44.106,0.346,43.948,0.389,43.798,0.475"/>
		</defs>
		<clipPath id="SVGID_5_">
			<use xlink:href="#SVGID_4_"  overflow="visible"/>
		</clipPath>
		
			<linearGradient id="SVGID_6_" gradientUnits="userSpaceOnUse" x1="-241.5449" y1="416.6416" x2="-239.6137" y2="416.6416" gradientTransform="matrix(22.8276 -14.5624 -8.3303 -20.3541 8995.7891 4991.5938)">
			<stop  offset="0" style="stop-color:#99258E"/>
			<stop  offset="0.2718" style="stop-color:#B52F6B"/>
			<stop  offset="0.5725" style="stop-color:#CF394B"/>
			<stop  offset="0.826" style="stop-color:#DE3F38"/>
			<stop  offset="1" style="stop-color:#E44131"/>
		</linearGradient>
		<polygon clip-path="url(#SVGID_5_)" fill="url(#SVGID_6_)" points="-13.48,9.099 35.667,-22.255 58.637,33.865 9.489,65.22 		"/>
	</g>
	<path fill="#99258E" d="M53.707,35.631H40.648c-1.022,0-1.291-0.154-1.122-1.111l4.128-23.473c0.161-0.92,0.602-0.994,1.495-0.994
		h13.058c1.405,0,0.869,1.11,0.699,2.066c-0.142,0.805-0.259,1.225-1.279,1.225c-3.404,0-6.8-0.037-10.182-0.152l-1.354,7.697
		c3.118-0.075,6.238-0.153,9.345-0.153c1.273,0,0.858,0.917,0.709,1.76c-0.14,0.807-0.256,1.225-1.279,1.225
		c-3.104,0-6.153-0.076-9.243-0.155l-1.57,8.926c3.424-0.117,6.876-0.154,10.278-0.154c0.978,0,0.939,0.46,0.806,1.226l-0.19,1.071
		C54.812,35.401,54.515,35.631,53.707,35.631"/>
	<path fill="#231F20" d="M153.848,20.988c-0.263,0-0.504-0.048-0.731-0.146c-0.226-0.098-0.423-0.233-0.591-0.402
		c-0.17-0.167-0.304-0.367-0.402-0.593c-0.097-0.226-0.149-0.468-0.149-0.728c0-0.255,0.053-0.497,0.149-0.725
		c0.099-0.225,0.232-0.422,0.402-0.588c0.168-0.169,0.365-0.301,0.591-0.4c0.228-0.099,0.469-0.147,0.731-0.147
		c0.254,0,0.496,0.048,0.721,0.147c0.227,0.099,0.426,0.231,0.594,0.4c0.171,0.166,0.302,0.363,0.4,0.588
		c0.096,0.229,0.146,0.47,0.146,0.725c0,0.259-0.05,0.502-0.146,0.728c-0.099,0.227-0.229,0.426-0.4,0.593
		c-0.168,0.169-0.367,0.304-0.594,0.402C154.344,20.94,154.102,20.988,153.848,20.988 M153.848,20.744
		c0.225,0,0.435-0.042,0.624-0.125c0.194-0.084,0.359-0.2,0.495-0.346c0.139-0.145,0.246-0.317,0.325-0.514
		c0.078-0.195,0.119-0.409,0.119-0.639c0-0.226-0.041-0.438-0.119-0.636c-0.079-0.196-0.187-0.366-0.325-0.511
		c-0.136-0.143-0.301-0.258-0.495-0.343c-0.189-0.083-0.399-0.125-0.624-0.125c-0.229,0-0.438,0.042-0.632,0.125
		c-0.194,0.085-0.361,0.2-0.5,0.343c-0.138,0.145-0.248,0.315-0.328,0.511c-0.077,0.198-0.117,0.411-0.117,0.636
		c0,0.23,0.04,0.444,0.117,0.639c0.08,0.197,0.19,0.369,0.328,0.514c0.139,0.146,0.306,0.262,0.5,0.346
		C153.41,20.701,153.619,20.744,153.848,20.744 M154.775,20.162h-0.306l-0.594-0.96h-0.468v0.96h-0.257v-2.083h0.911
		c0.275,0,0.468,0.051,0.575,0.149c0.11,0.098,0.162,0.232,0.162,0.403c0,0.103-0.017,0.188-0.048,0.262
		c-0.033,0.071-0.078,0.129-0.138,0.173c-0.06,0.044-0.131,0.077-0.211,0.098c-0.081,0.022-0.167,0.035-0.257,0.037L154.775,20.162z
		 M153.797,19h0.235c0.087,0,0.166-0.01,0.24-0.028c0.073-0.022,0.133-0.057,0.182-0.109c0.048-0.055,0.07-0.131,0.07-0.238
		c0-0.081-0.015-0.147-0.047-0.193c-0.029-0.048-0.072-0.084-0.119-0.11c-0.05-0.022-0.106-0.04-0.168-0.048
		c-0.062-0.007-0.126-0.011-0.188-0.011h-0.595V19H153.797z"/>
	<path fill="#99258E" d="M72.68,35.631h-1.488c-1.19,0-1.496,0.038-1.292-1.111l1.809-10.3c0.117-0.653,0.567-2.987,0.196-3.522
		c-0.381-0.498-1.131-0.573-1.814-0.573c-2.465,0-4.349,1.263-6.405,2.565L61.604,34.52c-0.123,0.689-0.281,1.111-1.132,1.111
		h-1.488c-1.189,0-1.496,0.038-1.296-1.111l2.757-15.662c0.154-0.88,0.352-1.032,1.286-1.032h1.874c1.063,0,0.761,0.996,0.646,1.647
		c2.376-1.418,4.101-2.261,6.864-2.261c3.657,0,5.454,1.646,4.874,4.939L73.812,34.52C73.691,35.209,73.531,35.631,72.68,35.631"/>
	<path fill="#99258E" d="M88.637,20.621h-4.424l-1.71,9.725c-0.205,1.149-0.726,2.913,1.103,2.913c1.235,0,2.569-0.578,3.59-0.578
		c0.425,0,0.397,0.154,0.338,0.499l-0.255,1.455c-0.168,0.958-0.239,1.109-1.314,1.186c-1.211,0.118-2.461,0.193-3.652,0.193
		c-4.55,0-4.382-1.914-3.742-5.551l1.727-9.842c-2.336,0-2.193,0.153-1.831-1.916c0.197-1.111,1.518-0.88,2.325-0.88l0.633-3.6
		c0.149-0.842,0.353-1.033,1.287-1.033h1.871c0.683,0,0.851,0.499,0.756,1.033l-0.634,3.6h4.425c1.317,0,1.118,0.42,0.942,1.417
		C89.887,20.275,89.87,20.621,88.637,20.621"/>
	<path fill="#99258E" d="M108.093,19.356L95.51,41.581c-0.369,0.65-0.64,0.726-1.405,0.726h-2.254c-0.34,0-0.687,0.04-0.621-0.344
		c0.042-0.229,0.261-0.5,0.378-0.689l3.979-6.178c-0.375-1.496-4.264-16.391-4.178-16.888c0.063-0.345,0.533-0.383,0.833-0.383
		h1.999c0.723,0,1.285-0.037,1.419,0.652l2.354,12.482l6.375-12.063c0.438-0.804,0.7-1.071,1.68-1.071h1.955
		c0.34,0,0.71,0.077,0.641,0.459C108.626,18.516,108.22,19.126,108.093,19.356"/>
	<path fill="#99258E" d="M117.164,34.635c-0.374,0.691-0.643,0.996-1.493,0.996h-1.957c-0.935,0-0.98-0.229-1.144-0.996
		l-3.431-16.042c-0.017-0.153-0.036-0.269-0.013-0.423c0.063-0.343,0.445-0.343,0.743-0.343h2.426c0.85,0,0.95,0.152,1.077,0.879
		l2.124,12.599l6.59-12.56c0.385-0.728,0.544-0.918,1.396-0.918h2.296c0.3,0,0.677,0.038,0.615,0.381
		C126.292,18.783,118.031,33.104,117.164,34.635"/>
	<path fill="#99258E" d="M127.925,35.631h-1.661c-1.148,0-1.447,0-1.25-1.111l2.754-15.661c0.149-0.842,0.351-1.033,1.287-1.033
		h2.001c0.681,0,0.847,0.496,0.755,1.033l-2.758,15.661C128.932,35.209,128.773,35.631,127.925,35.631 M131.566,14.914h-1.66
		c-1.146,0-1.445,0-1.25-1.11l0.243-1.377c0.149-0.844,0.352-1.034,1.288-1.034h1.998c0.682,0,0.85,0.497,0.754,1.034l-0.241,1.377
		C132.578,14.493,132.418,14.914,131.566,14.914"/>
	<path fill="#99258E" d="M140.427,36.13c-6.891,0-8.267-3.792-7.278-9.421c0.999-5.668,3.666-9.458,10.601-9.458
		c6.89,0,8.251,3.868,7.269,9.458C150.036,32.3,147.275,36.13,140.427,36.13 M147.078,21.769c-0.659-1.568-2.013-1.608-3.842-1.608
		s-3.198,0.04-4.411,1.608c-1,1.341-1.456,3.448-1.719,4.94c-0.262,1.494-0.549,3.599-0.017,4.939
		c0.616,1.568,2.063,1.568,3.849,1.568c1.788,0,3.24-0.035,4.402-1.568c0.994-1.303,1.463-3.483,1.72-4.939
		C147.323,25.217,147.611,23.11,147.078,21.769"/>
	<polygon fill="#899D97" points="46.219,46.058 41.295,55.614 40.731,55.614 40.101,46.058 38.726,46.058 39.479,56.883 
		42.058,56.883 47.668,46.058 	"/>
	<path fill="#899D97" d="M52.981,45.878c-2.406,0-4.397,1.661-4.953,4.138l-0.372,1.652c-0.496,2.217-0.418,3.581,0.25,4.421
		c0.514,0.65,1.37,0.967,2.615,0.979h0.002c0.958,0,3.585-0.177,3.695-0.185l0.23-0.016l0.288-1.287l-0.417,0.034
		c-0.021,0.004-2.249,0.181-3.629,0.181c-0.798,0-1.336-0.185-1.642-0.565c-0.43-0.538-0.474-1.554-0.129-3.186h6.938l0.425-1.893
		c0.31-1.38,0.165-2.452-0.425-3.191C55.285,46.242,54.314,45.878,52.981,45.878 M54.747,47.806c0.371,0.466,0.446,1.211,0.222,2.21
		l-0.171,0.762h-5.595l0.142-0.626c0.415-1.855,1.752-3.005,3.489-3.005C53.752,47.146,54.395,47.368,54.747,47.806"/>
	<path fill="#899D97" d="M65.848,46.209c-0.71-0.094-2.558-0.331-3.414-0.331c-1.952,0-3.75,1.697-4.276,4.036l-0.775,3.447
		c-0.25,1.121-0.096,2.068,0.447,2.748c0.495,0.617,1.286,0.958,2.229,0.958c0.957,0,2.698-0.706,3.598-1.098l-0.204,0.913h1.347
		l3.436-15.312H66.89L65.848,46.209z M58.698,53.498l0.761-3.388c0.388-1.716,1.574-2.964,2.827-2.964
		c0.745,0,2.535,0.234,3.274,0.339l-1.584,7.056c-0.891,0.402-2.952,1.254-3.771,1.254c-0.515,0-0.952-0.19-1.234-0.538
		C58.637,54.833,58.539,54.211,58.698,53.498"/>
	<path fill="#899D97" d="M74.853,45.938h-1.307c-2.139,0-3.934,1.595-4.467,3.976l-0.68,3.022c-0.282,1.262-0.118,2.324,0.479,3.067
		c0.515,0.645,1.34,1,2.317,1h1.311c2.137,0,3.93-1.581,4.457-3.934l0.677-3.024c0.289-1.286,0.125-2.365-0.475-3.114
		C76.646,46.281,75.846,45.938,74.853,45.938 M72.653,55.735h-1.31c-0.563,0-1.02-0.198-1.323-0.579
		c-0.389-0.486-0.496-1.226-0.304-2.086l0.679-3.021c0.308-1.38,1.468-2.844,3.003-2.844h1.307c0.576,0,1.021,0.191,1.321,0.565
		c0.387,0.486,0.496,1.266,0.298,2.143l-0.676,3.022C75.283,54.558,74.025,55.735,72.653,55.735"/>
	<polygon fill="#899D97" points="78.825,56.883 80.17,56.883 83.607,41.569 82.261,41.569 	"/>
	<polygon fill="#899D97" points="83.705,56.883 85.049,56.883 87.479,46.06 86.135,46.06 	"/>
	<polygon fill="#899D97" points="88.351,42.183 87.005,42.183 86.614,43.919 87.96,43.919 	"/>
	<polygon fill="#899D97" points="89.789,47.33 95.887,47.33 87.946,55.731 87.89,55.792 87.646,56.883 95.5,56.883 95.791,55.592 
		89.751,55.592 97.62,47.254 97.678,47.192 97.93,46.06 90.074,46.06 	"/>
	<path fill="#899D97" d="M105.14,54.792c-0.912,0.325-2.957,1.006-3.653,1.006c-0.512,0-0.95-0.195-1.234-0.551
		c-0.335-0.419-0.436-1.032-0.279-1.726l1.673-7.462h-1.344l-1.646,7.326c-0.312,1.388,0.074,2.242,0.451,2.711
		c0.497,0.628,1.292,0.971,2.231,0.971c0.823,0,2.597-0.57,3.487-0.874l-0.155,0.689h1.344l2.432-10.823H107.1L105.14,54.792z"/>
	<path fill="#899D97" d="M122.514,45.878c-0.994,0-3.101,0.843-3.85,1.156c-0.419-0.667-1.334-1.156-2.233-1.156
		c-0.85,0-2.53,0.616-3.403,0.962l0.176-0.782h-1.349l-2.428,10.825h1.348l1.938-8.636c0.879-0.355,2.861-1.101,3.571-1.101
		c0.455,0,0.821,0.157,1.063,0.457c0.328,0.413,0.417,1.066,0.242,1.841l-1.668,7.438h1.343l1.642-7.304
		c0.133-0.604,0.162-1.012,0.137-1.38c0.873-0.358,2.696-1.053,3.326-1.053c0.506,0,0.939,0.195,1.222,0.547
		c0.343,0.429,0.443,1.05,0.285,1.751l-1.67,7.438h1.346l1.642-7.304c0.313-1.4-0.076-2.261-0.455-2.735
		C124.237,46.221,123.445,45.878,122.514,45.878"/>
	<path fill="#899D97" d="M135.761,49.15c0.214-0.953,0.065-1.807-0.418-2.413c-0.436-0.544-1.12-0.842-1.931-0.842
		c-1.465,0-4.197,0.185-4.228,0.187l-0.229,0.015l-0.286,1.28l0.409-0.025c0.028-0.002,2.803-0.188,4.186-0.188
		c0.428,0,0.752,0.134,0.964,0.399c0.273,0.342,0.344,0.887,0.198,1.531l-0.254,1.129l-4.226,0.349
		c-1.589,0.13-2.915,1.368-3.3,3.077c-0.229,1.019-0.066,1.969,0.445,2.61c0.424,0.526,1.054,0.808,1.827,0.808
		c0.725,0,3.956-0.374,4.413-0.427l2.06,0.408l0.465-1.192l-1.531-0.317L135.761,49.15z M133.887,51.507l-0.881,3.93
		c-0.777,0.084-3.382,0.361-3.919,0.361c-0.361,0-0.645-0.127-0.843-0.374c-0.298-0.37-0.385-0.991-0.234-1.662
		c0.195-0.875,0.813-1.848,1.949-1.943L133.887,51.507z"/>
	<path fill="#899D97" d="M146.949,46.844c-0.5-0.623-1.288-0.966-2.224-0.966c-0.955,0-2.66,0.475-3.514,0.731l1.134-5.038h-1.35
		l-3.416,15.221l0.353,0.03c0.138,0.007,3.333,0.264,4.375,0.264c2.214,0,3.899-2.184,4.36-4.241l0.735-3.266
		C147.717,48.181,147.33,47.318,146.949,46.844 M146.088,49.442l-0.734,3.267c-0.383,1.713-1.684,3.109-2.899,3.109
		c-0.76,0-2.517-0.12-3.273-0.178l1.723-7.666c0.614-0.188,2.751-0.828,3.675-0.828c0.508,0,0.942,0.195,1.227,0.547
		C146.144,48.12,146.246,48.743,146.088,49.442"/>
</g>
</svg>
